<svg version="1.1" id="Layer_1" xmlns="http://www.w3.org/2000/svg" xmlns:xlink="http://www.w3.org/1999/xlink" x="0px" y="0px"
	 width="100%" viewBox="0 0 1021 965" enable-background="new 0 0 1021 965" xml:space="preserve">
<path fill="#020403" opacity="1.000000" stroke="none" 
	d="
M1022.000000,904.000000 
	C1022.000000,924.658875 1022.000000,945.317688 1022.000000,965.954712 
	C681.666687,965.954712 341.333344,965.954712 1.000000,965.954712 
	C1.000000,945.916992 1.000000,925.924561 1.395036,905.537781 
	C3.128809,910.079346 4.155229,915.126160 5.861440,919.931580 
	C12.511182,938.659729 25.693962,950.985291 44.109989,957.859619 
	C45.055794,958.212646 46.696495,956.704163 48.366402,956.100952 
	C51.143375,957.101501 53.567616,958.063477 56.023468,959.349854 
	C57.989658,963.866394 58.910831,960.858032 60.478127,959.104858 
	C81.886253,959.091614 102.827362,958.990845 123.766945,959.126099 
	C137.847351,959.217041 151.924606,959.780762 166.005081,959.883179 
	C184.944443,960.020935 203.886047,959.996765 222.825684,959.880981 
	C230.797195,959.832275 238.765442,959.189941 246.736572,959.157349 
	C252.873245,959.132202 259.013489,959.885376 265.149628,959.850769 
	C274.569183,959.797607 283.985657,959.177002 293.405060,959.130920 
	C316.511169,959.017883 339.618225,959.096252 362.724884,959.096130 
	C378.500366,959.096008 394.276276,959.016602 410.051239,959.107056 
	C449.018585,959.330444 487.985138,959.719055 526.952698,959.851196 
	C539.863708,959.894958 552.775574,959.239075 565.689087,959.118835 
	C580.300964,958.982727 594.915466,959.019470 609.528076,959.108887 
	C625.948486,959.209351 642.368103,959.591736 658.788025,959.593933 
	C674.710083,959.596069 690.632141,959.141296 706.554199,959.140381 
	C715.691650,959.139893 724.827515,959.792297 733.966858,959.884033 
	C747.573547,960.020630 761.182678,959.922974 774.790771,959.921692 
	C787.064941,959.920593 799.339111,959.912659 811.613281,959.911987 
	C823.055054,959.911377 834.497925,960.020447 845.938232,959.893494 
	C861.242615,959.723755 876.544189,959.318665 891.848389,959.120544 
	C900.955811,959.002625 910.065796,959.086975 919.174622,959.081909 
	C932.449402,959.074524 945.724121,959.068481 959.226379,959.318359 
	C960.959900,960.379883 962.465942,961.184814 964.470032,962.255981 
	C964.708435,960.499512 964.875000,959.272522 965.408020,958.033752 
	C966.507202,957.991150 967.239807,957.960266 968.248901,958.149414 
	C969.721436,958.898926 970.917542,959.428467 972.113708,959.958008 
	C972.293945,959.573181 972.474182,959.188354 972.654419,958.803528 
	C971.763489,958.198364 970.872559,957.593140 970.349121,956.975220 
	C971.451050,956.924988 972.185425,956.887573 973.199951,957.076660 
	C974.573059,957.734558 976.009399,958.843262 976.704956,958.490723 
	C982.500305,955.553284 988.540100,952.876526 993.779175,949.109863 
	C1004.364685,941.499268 1012.732605,932.125000 1016.557434,919.030212 
	C1017.432251,916.035095 1017.731201,915.120789 1015.117798,913.688782 
	C1015.164001,912.982788 1015.200439,912.579956 1015.544922,912.194458 
	C1016.730896,912.669189 1017.608765,913.126648 1018.486633,913.584045 
	C1018.790466,913.104614 1019.094299,912.625183 1019.398132,912.145691 
	C1018.292175,911.424438 1017.186218,910.703186 1016.100220,909.665955 
	C1016.403381,908.556152 1016.686646,907.762268 1017.335510,906.970215 
	C1019.134094,905.981384 1020.567078,904.990662 1022.000000,904.000000 
M717.499023,962.988586 
	C795.731079,962.988586 873.963074,962.988586 952.195129,962.988586 
	C952.194763,962.729980 952.194397,962.471375 952.194092,962.212769 
	C656.410278,962.212769 360.626526,962.212769 64.842758,962.212769 
	C64.842659,962.471802 64.842552,962.730774 64.842453,962.989807 
	C282.061432,962.989807 499.280396,962.989807 717.499023,962.988586 
z"/>
<path fill="#052A1F" opacity="1.000000" stroke="none" 
	d="
M1.000000,884.000000 
	C1.000000,609.970642 1.000000,335.941254 1.319584,61.627258 
	C2.746192,63.225739 3.853215,65.108871 4.973826,67.461395 
	C4.990599,173.209335 4.999854,278.487885 4.995579,383.766418 
	C4.988808,550.512817 4.973004,717.259216 4.564927,884.003784 
	C3.112556,884.001343 2.056278,884.000671 1.000000,884.000000 
z"/>
<path fill="#01120D" opacity="1.000000" stroke="none" 
	d="
M822.000000,1.000006 
	C833.020874,1.000000 844.041809,1.000000 855.800049,1.325988 
	C871.814026,1.755845 887.090576,1.869739 902.367371,1.922522 
	C902.910522,1.924399 903.455750,1.321202 904.000000,1.000004 
	C919.687561,1.000000 935.375122,1.000000 951.530029,1.382366 
	C952.012512,2.782720 952.027649,3.800708 951.574219,4.888527 
	C949.773132,4.975138 948.440613,5.006627 947.108154,5.006617 
	C734.040710,5.004918 520.973267,4.990121 307.905853,5.002487 
	C224.278610,5.007340 140.651367,5.072798 57.015610,4.827261 
	C56.996655,4.355139 56.986225,4.166412 56.987362,3.988757 
	C56.998932,3.999828 56.979187,3.977778 57.302319,3.947083 
	C58.083221,3.282168 58.540993,2.647947 59.002087,1.760299 
	C59.003605,1.337914 59.001804,1.168957 59.000000,1.000000 
	C74.354225,1.000000 89.708458,1.000000 105.793892,1.329533 
	C108.174522,1.776975 109.823929,1.998088 111.473358,1.998176 
	C346.603302,2.010780 581.733215,2.009455 816.863159,1.963093 
	C818.575500,1.962755 820.287720,1.334875 822.000000,1.000006 
z"/>
<path fill="#020905" opacity="1.000000" stroke="none" 
	d="
M1022.000000,105.000000 
	C1022.000000,111.687645 1022.000000,118.375290 1021.655334,125.782425 
	C1021.190247,132.639236 1020.950562,138.777603 1021.004517,144.913376 
	C1021.028198,147.611618 1021.649780,150.304626 1022.000000,153.000000 
	C1022.000000,153.000000 1022.000000,153.500000 1021.655762,154.001282 
	C1021.190857,156.653061 1020.965210,158.803543 1020.964783,160.954041 
	C1020.945862,261.780762 1020.948059,362.607483 1020.944519,463.434204 
	C1020.939453,605.424927 1020.926941,747.415710 1020.970032,889.406433 
	C1020.970703,891.604431 1021.641785,893.802124 1022.000000,896.000000 
	C1022.000000,897.066711 1022.000000,898.133362 1021.658386,899.608887 
	C1020.234192,899.339905 1019.151672,898.662231 1018.058594,897.520630 
	C1018.047607,618.708313 1018.047119,340.359924 1018.441956,62.011322 
	C1019.891541,62.007439 1020.945801,62.003719 1022.000000,62.000000 
	C1022.000000,66.689255 1022.000000,71.378510 1021.653320,76.782852 
	C1021.183960,84.637474 1020.977173,91.777191 1020.992126,98.916443 
	C1020.996399,100.944992 1021.646240,102.972183 1022.000000,105.000000 
z"/>
<path fill="#000000" opacity="1.000000" stroke="none" 
	d="
M959.000000,1.000000 
	C979.923157,1.000000 1000.846313,1.000000 1022.000000,1.000000 
	C1022.000000,19.686930 1022.000000,38.374805 1021.655029,57.490578 
	C1020.514404,55.815460 1019.808472,53.672855 1018.903015,51.618191 
	C1017.332947,48.055309 1015.639343,44.546867 1013.992432,40.761604 
	C1013.981201,40.338493 1013.975037,40.169365 1013.872742,39.778103 
	C1013.581848,39.282322 1013.323792,39.096508 1012.991455,38.615368 
	C1010.422302,34.088394 1008.236450,29.650158 1005.236145,25.855923 
	C996.219788,14.453722 983.596741,8.534756 970.360901,3.569534 
	C967.373535,2.448903 965.991394,3.338292 964.728333,5.930056 
	C964.487183,5.952489 964.004517,5.993447 963.755798,5.865861 
	C963.000183,5.505242 962.493225,5.272208 961.992920,4.781376 
	C962.002136,4.351680 962.004700,4.179782 961.871704,3.714001 
	C960.824280,2.954015 959.912354,2.487913 958.999207,1.766354 
	C958.998596,1.340599 958.999329,1.170299 959.000000,1.000000 
z"/>
<path fill="#000000" opacity="1.000000" stroke="none" 
	d="
M58.531342,1.000000 
	C59.001804,1.168957 59.003605,1.337914 58.679405,1.793071 
	C57.895332,2.712106 57.437260,3.344943 56.979187,3.977778 
	C56.979187,3.977778 56.998932,3.999828 56.587658,3.983482 
	C54.392727,3.705236 52.408882,2.802568 50.858376,3.286963 
	C41.795982,6.118153 32.507099,9.168715 25.516068,15.650987 
	C13.730757,26.578640 3.720808,38.906551 2.877799,56.169525 
	C2.846585,56.808727 1.652280,57.391129 1.000000,58.000000 
	C1.000000,39.072567 1.000000,20.145136 1.000000,1.000000 
	C20.020340,1.000000 39.041512,1.000000 58.531342,1.000000 
z"/>
<path fill="#1C6F53" opacity="1.000000" stroke="none" 
	d="
M1022.000000,895.531372 
	C1021.641785,893.802124 1020.970703,891.604431 1020.970032,889.406433 
	C1020.926941,747.415710 1020.939453,605.424927 1020.944519,463.434204 
	C1020.948059,362.607483 1020.945862,261.780762 1020.964783,160.954041 
	C1020.965210,158.803543 1021.190857,156.653061 1021.655762,154.251282 
	C1022.000000,401.020905 1022.000000,648.041809 1022.000000,895.531372 
z"/>
<path fill="#215E4B" opacity="1.000000" stroke="none" 
	d="
M821.532166,1.000006 
	C820.287720,1.334875 818.575500,1.962755 816.863159,1.963093 
	C581.733215,2.009455 346.603302,2.010780 111.473358,1.998176 
	C109.823929,1.998088 108.174522,1.776975 106.262550,1.329533 
	C344.354767,1.000000 582.709534,1.000000 821.532166,1.000006 
z"/>
<path fill="#05261B" opacity="1.000000" stroke="none" 
	d="
M1.000000,884.468567 
	C2.056278,884.000671 3.112556,884.001343 4.577153,884.471680 
	C5.105531,894.545227 4.642133,904.090881 7.556519,913.571655 
	C11.639540,926.854004 18.630466,937.934937 29.971203,945.879517 
	C35.600544,949.823120 41.975834,952.701904 48.013680,956.062378 
	C46.696495,956.704163 45.055794,958.212646 44.109989,957.859619 
	C25.693962,950.985291 12.511182,938.659729 5.861440,919.931580 
	C4.155229,915.126160 3.128809,910.079346 1.395036,905.071716 
	C1.000000,898.312378 1.000000,891.624695 1.000000,884.468567 
z"/>
<path fill="#02251B" opacity="1.000000" stroke="none" 
	d="
M1.000000,58.375000 
	C1.652280,57.391129 2.846585,56.808727 2.877799,56.169525 
	C3.720808,38.906551 13.730757,26.578640 25.516068,15.650987 
	C32.507099,9.168715 41.795982,6.118153 50.858376,3.286963 
	C52.408882,2.802568 54.392727,3.705236 56.576088,3.972410 
	C56.986225,4.166412 56.996655,4.355139 57.021946,5.052829 
	C57.036804,5.561791 57.015377,6.015278 56.612259,6.015937 
	C42.593166,8.753778 30.837151,14.725033 21.286364,25.083693 
	C10.310817,36.987625 5.460462,51.098160 4.960240,66.991997 
	C3.853215,65.108871 2.746192,63.225739 1.319584,61.171303 
	C1.000000,60.250000 1.000000,59.500000 1.000000,58.375000 
z"/>
<path fill="#05261B" opacity="1.000000" stroke="none" 
	d="
M1013.997559,41.015587 
	C1015.639343,44.546867 1017.332947,48.055309 1018.903015,51.618191 
	C1019.808472,53.672855 1020.514404,55.815460 1021.655029,57.959236 
	C1022.000000,59.066669 1022.000000,60.133339 1022.000000,61.600006 
	C1020.945801,62.003719 1019.891541,62.007439 1018.144165,61.747543 
	C1015.958069,55.329792 1014.465027,49.175655 1013.221069,42.853836 
	C1013.645996,42.129299 1013.821777,41.572445 1013.997559,41.015587 
z"/>
<path fill="#215E4B" opacity="1.000000" stroke="none" 
	d="
M903.531372,1.000004 
	C903.455750,1.321202 902.910522,1.924399 902.367371,1.922522 
	C887.090576,1.869739 871.814026,1.755845 856.268677,1.325988 
	C871.687561,1.000000 887.375122,1.000000 903.531372,1.000004 
z"/>
<path fill="#05261B" opacity="1.000000" stroke="none" 
	d="
M1018.069092,897.984497 
	C1019.151672,898.662231 1020.234192,899.339905 1021.658386,900.008789 
	C1022.000000,901.066711 1022.000000,902.133362 1022.000000,903.600037 
	C1020.567078,904.990662 1019.134094,905.981384 1017.332764,906.533875 
	C1017.332642,903.391968 1017.700928,900.688232 1018.069092,897.984497 
z"/>
<path fill="#1C6F53" opacity="1.000000" stroke="none" 
	d="
M1022.000000,104.531342 
	C1021.646240,102.972183 1020.996399,100.944992 1020.992126,98.916443 
	C1020.977173,91.777191 1021.183960,84.637474 1021.653320,77.248962 
	C1022.000000,86.020897 1022.000000,95.041786 1022.000000,104.531342 
z"/>
<path fill="#1C6F53" opacity="1.000000" stroke="none" 
	d="
M1022.000000,152.531342 
	C1021.649780,150.304626 1021.028198,147.611618 1021.004517,144.913376 
	C1020.950562,138.777603 1021.190247,132.639236 1021.655334,126.250961 
	C1022.000000,134.687561 1022.000000,143.375137 1022.000000,152.531342 
z"/>
<path fill="#01120D" opacity="1.000000" stroke="none" 
	d="
M962.007324,4.007886 
	C962.004700,4.179782 962.002136,4.351680 961.549316,4.799660 
	C958.718933,4.992646 956.338745,4.909549 953.971069,4.444044 
	C953.989014,3.041090 953.994507,2.020545 954.000000,1.000000 
	C955.389343,1.000000 956.778625,1.000000 958.583984,1.000000 
	C958.999329,1.170299 958.998596,1.340599 959.054443,2.108046 
	C960.076416,3.139425 961.041870,3.573656 962.007324,4.007886 
z"/>
<path fill="#000000" opacity="1.000000" stroke="none" 
	d="
M953.666626,1.000000 
	C953.994507,2.020545 953.989014,3.041090 953.652710,4.487785 
	C952.895508,4.882187 952.469116,4.850440 952.042847,4.818694 
	C952.027649,3.800708 952.012512,2.782720 951.998657,1.382366 
	C952.444458,1.000000 952.888855,1.000000 953.666626,1.000000 
z"/>
<path fill="#014A33" opacity="1.000000" stroke="none" 
	d="
M1018.058655,897.520630 
	C1017.700928,900.688232 1017.332642,903.391968 1016.967163,906.532104 
	C1016.686646,907.762268 1016.403381,908.556152 1015.834839,909.848145 
	C1015.445312,910.956604 1015.341064,911.566895 1015.236877,912.177185 
	C1015.200439,912.579956 1015.164001,912.982788 1014.823120,913.904785 
	C1013.502686,916.652710 1012.363403,918.834473 1011.490906,921.118103 
	C1006.550598,934.048035 997.408875,943.249390 985.704834,950.116821 
	C981.554932,952.551758 977.187805,954.616455 972.919800,956.850098 
	C972.185425,956.887573 971.451050,956.924988 970.054138,956.987061 
	C968.918518,957.317566 968.445496,957.623474 967.972473,957.929382 
	C967.239807,957.960266 966.507202,957.991150 964.998779,958.011475 
	C962.481628,958.354614 960.740234,958.708191 958.998901,959.061768 
	C945.724121,959.068481 932.449402,959.074524 919.174622,959.081909 
	C910.065796,959.086975 900.955811,959.002625 891.848389,959.120544 
	C876.544189,959.318665 861.242615,959.723755 845.938232,959.893494 
	C834.497925,960.020447 823.055054,959.911377 811.613281,959.911987 
	C799.339111,959.912659 787.064941,959.920593 774.790771,959.921692 
	C761.182678,959.922974 747.573547,960.020630 733.966858,959.884033 
	C724.827515,959.792297 715.691650,959.139893 706.554199,959.140381 
	C690.632141,959.141296 674.710083,959.596069 658.788025,959.593933 
	C642.368103,959.591736 625.948486,959.209351 609.528076,959.108887 
	C594.915466,959.019470 580.300964,958.982727 565.689087,959.118835 
	C552.775574,959.239075 539.863708,959.894958 526.952698,959.851196 
	C487.985138,959.719055 449.018585,959.330444 410.051239,959.107056 
	C394.276276,959.016602 378.500366,959.096008 362.724884,959.096130 
	C339.618225,959.096252 316.511169,959.017883 293.405060,959.130920 
	C283.985657,959.177002 274.569183,959.797607 265.149628,959.850769 
	C259.013489,959.885376 252.873245,959.132202 246.736572,959.157349 
	C238.765442,959.189941 230.797195,959.832275 222.825684,959.880981 
	C203.886047,959.996765 184.944443,960.020935 166.005081,959.883179 
	C151.924606,959.780762 137.847351,959.217041 123.766945,959.126099 
	C102.827362,958.990845 81.886253,959.091614 60.278465,958.822754 
	C58.404713,958.710815 57.198288,958.868103 55.991863,959.025391 
	C53.567616,958.063477 51.143375,957.101501 48.366405,956.100952 
	C41.975834,952.701904 35.600544,949.823120 29.971203,945.879517 
	C18.630466,937.934937 11.639540,926.854004 7.556519,913.571655 
	C4.642133,904.090881 5.105531,894.545227 4.973247,884.473511 
	C4.973004,717.259216 4.988808,550.512817 4.995579,383.766418 
	C4.999854,278.487885 4.990599,173.209335 4.973827,67.461395 
	C5.460462,51.098160 10.310817,36.987625 21.286364,25.083693 
	C30.837151,14.725033 42.593166,8.753778 56.900154,6.313492 
	C59.069649,6.740483 60.548122,6.984492 62.026608,6.984577 
	C360.961273,7.001665 659.895935,7.003226 958.830627,6.960333 
	C960.555298,6.960086 962.279907,6.329620 964.004517,5.993449 
	C964.004517,5.993447 964.487183,5.952489 965.116272,6.007760 
	C985.788696,10.228722 1000.672729,21.482727 1011.035828,39.312782 
	C1011.668091,40.129845 1012.262085,40.634624 1012.884888,41.451752 
	C1012.933167,42.183239 1012.952637,42.602371 1012.972046,43.021515 
	C1014.465027,49.175655 1015.958069,55.329792 1017.748779,61.747707 
	C1018.047119,340.359924 1018.047607,618.708313 1018.058655,897.520630 
M597.038513,735.505188 
	C597.038513,735.505188 597.029724,735.015259 597.044983,734.076111 
	C597.033997,624.051147 597.022949,514.026184 597.570862,403.409546 
	C597.570862,398.805237 597.570862,394.200897 597.570862,389.596588 
	C598.602417,390.188751 598.856201,390.877991 599.066528,391.580231 
	C603.003723,404.723450 606.865173,417.889862 610.890991,431.005829 
	C614.141663,441.596436 617.721619,452.086853 620.907471,462.696198 
	C623.475220,471.247162 625.521057,479.954468 628.070496,488.511353 
	C631.566589,500.245758 635.403870,511.878204 638.944946,523.599670 
	C645.531189,545.401306 651.977844,567.245056 658.543945,589.052795 
	C662.356995,601.716858 666.390930,614.315002 670.140869,626.997314 
	C674.320374,641.132385 678.197205,655.356873 682.379150,669.491211 
	C686.178650,682.332886 690.150696,695.124817 694.206787,707.887817 
	C694.794189,709.736206 696.275391,711.300537 697.342957,712.996338 
	C697.728088,712.861267 698.113220,712.726196 698.498352,712.591125 
	C698.683838,711.370239 698.869263,710.149414 699.805359,708.929871 
	C700.548523,709.016541 701.291626,709.103149 701.941833,709.857361 
	C701.542480,711.643982 701.143127,713.430542 700.743713,715.217163 
	C701.351501,715.387024 701.959290,715.556824 702.567078,715.726685 
	C703.578186,713.693054 704.890686,711.751953 705.548584,709.609863 
	C708.461060,700.126404 711.206909,690.591492 713.973145,681.063599 
	C718.591492,665.156311 723.158264,649.234009 727.785828,633.329407 
	C732.685242,616.490662 737.575928,599.649048 742.567932,582.837585 
	C750.244568,556.985291 758.068298,531.176575 765.710327,505.314148 
	C772.833618,481.206970 779.847290,457.067108 786.819214,432.915710 
	C790.668579,419.581238 794.292175,406.181488 798.178162,392.858002 
	C798.420959,392.025482 800.066711,391.602112 801.032349,391.737640 
	C801.041077,392.486115 801.049866,393.234619 800.716125,394.699036 
	C800.541138,396.830414 800.366211,398.961792 800.134033,401.904083 
	C800.388794,403.700165 800.890930,405.500854 800.857422,407.291534 
	C800.664978,417.580811 800.113220,427.867554 800.106873,438.155457 
	C800.064636,506.407715 800.130066,574.660034 800.054321,643.793945 
	C800.093811,645.560242 800.133362,647.326477 800.118958,650.003784 
	C800.136292,653.972107 800.153687,657.940369 800.068298,662.632263 
	C800.099731,663.117493 800.131165,663.602722 800.110779,665.012329 
	C800.117554,688.649780 800.124329,712.287170 800.134155,736.713928 
	C802.198120,740.905762 806.027039,738.292297 809.929993,739.029053 
	C831.410339,739.031677 852.890686,739.060059 874.370850,738.991943 
	C876.257690,738.985962 878.142639,738.347961 880.843018,738.026062 
	C888.008362,739.817444 888.047424,739.790527 888.000244,732.401611 
	C887.992859,731.237915 887.919617,730.074707 887.908508,727.985901 
	C887.910706,652.670105 887.922058,577.354309 887.912720,502.038544 
	C887.901489,411.393372 887.872681,320.748169 887.955933,229.162552 
	C887.967041,226.704056 887.836121,224.234589 888.024780,221.789795 
	C888.266357,218.660095 886.861145,217.611893 883.023193,218.043320 
	C874.046936,218.043060 865.070740,218.040955 856.094482,218.042938 
	C829.996887,218.048721 803.899292,218.039261 777.801819,218.095200 
	C775.721680,218.099655 772.690613,217.079483 773.037109,221.010666 
	C773.037109,221.010666 773.135559,221.055984 772.392578,221.106628 
	C771.788269,222.027756 770.921387,222.870728 770.620300,223.882126 
	C767.658142,233.833893 764.703674,243.789566 761.914795,253.790924 
	C757.287964,270.383392 752.846680,287.027649 748.213806,303.618408 
	C742.467590,324.196350 736.572510,344.732697 730.806396,365.305084 
	C727.280090,377.886108 723.898376,390.507599 720.409424,403.099213 
	C716.615906,416.790100 712.842896,430.487305 708.922241,444.141968 
	C707.004272,450.821899 704.771790,457.411560 702.493103,464.640381 
	C700.181091,456.803955 698.069458,449.718536 696.000427,442.620728 
	C688.309143,416.236725 680.621033,389.851715 672.952515,363.461029 
	C667.037842,343.105774 661.161133,322.739471 655.254578,302.381866 
	C651.475342,289.356201 647.678223,276.335724 643.878418,263.316040 
	C639.973145,249.934464 636.026978,236.564713 632.160706,223.171875 
	C631.101562,219.502762 629.112061,217.890442 625.014587,217.907135 
	C588.351624,218.056534 551.687744,217.996735 515.024170,218.016022 
	C508.625610,218.019379 508.018341,218.672592 508.018188,225.340729 
	C508.014099,393.826691 508.011536,562.312683 508.050995,730.798645 
	C508.051422,732.546570 508.614594,734.294434 509.046448,736.667114 
	C509.685211,737.112793 510.324005,737.558411 511.537140,738.624756 
	C512.676331,738.759277 513.815491,739.010925 514.954712,739.011169 
	C541.298523,739.016174 567.642395,738.993896 594.670837,738.924805 
	C595.456970,737.948242 596.243103,736.971680 597.038513,735.505188 
M247.971222,522.171387 
	C248.181030,518.672913 250.787048,519.000427 253.094437,519.064697 
	C264.034698,519.369141 274.973358,519.732727 285.962860,520.856018 
	C286.129089,521.833374 286.158875,522.858643 286.482269,523.780884 
	C290.575012,535.452209 294.792725,547.080200 298.809937,558.777222 
	C302.513916,569.562134 305.966858,580.432983 309.616180,591.236938 
	C314.083008,604.461243 318.692322,617.637512 323.137878,630.868835 
	C326.085907,639.643250 328.707794,648.528870 331.737915,657.273804 
	C336.380707,670.672913 341.360107,683.955627 345.989410,697.359253 
	C350.137207,709.368713 353.930389,721.500610 358.072906,733.511963 
	C358.732513,735.424500 360.067169,737.521118 361.706055,738.562561 
	C363.365875,739.617065 365.690308,739.374084 364.735870,736.010315 
	C365.499420,736.068176 366.262939,736.126099 366.998474,736.771362 
	C366.973633,737.162598 366.948792,737.553772 366.731293,738.549316 
	C367.508331,738.710815 368.285400,739.013550 369.062439,739.013489 
	C397.357513,739.011597 425.652588,738.981506 454.844971,738.987366 
	C457.398895,738.987366 459.952820,738.987366 463.680878,738.987366 
	C433.592682,657.979797 403.939240,578.142700 374.281769,498.294769 
	C377.531525,496.507965 380.574127,494.877136 383.577545,493.177155 
	C407.122040,479.850494 424.945648,461.377991 435.152893,435.997742 
	C441.108124,421.189941 444.635406,405.798126 445.992737,389.953339 
	C447.695435,370.077454 448.075531,350.199982 445.032288,330.364838 
	C442.687592,315.082672 438.954102,300.197052 431.988647,286.372711 
	C429.384491,281.204254 425.270355,276.796631 421.951324,272.023071 
	C421.951324,272.023071 421.925354,272.128265 421.997284,271.381592 
	C421.864532,270.737793 421.949005,269.892609 421.566620,269.480286 
	C415.137421,262.547302 408.688690,255.630875 402.115173,248.835663 
	C401.465546,248.164139 399.973694,248.307297 398.971161,248.040573 
	C398.971161,248.040573 398.933777,248.136963 398.939514,247.389526 
	C397.583984,246.617584 396.228485,245.845657 394.972168,245.040466 
	C394.972168,245.040466 394.932465,245.137283 394.947388,244.417313 
	C392.816193,242.706680 390.861664,240.691986 388.525330,239.334320 
	C372.179108,229.835205 354.308380,224.507416 335.853882,221.316269 
	C325.664276,219.554291 315.236481,219.169708 303.991241,218.111221 
	C297.328918,218.094299 290.666595,218.058731 284.004272,218.063507 
	C239.367569,218.095459 194.730865,218.135956 149.442383,218.149597 
	C149.312561,219.441849 149.182755,220.734100 149.032440,222.686920 
	C149.037079,223.127441 149.041718,223.567963 148.542618,224.367050 
	C148.707321,225.242325 148.872025,226.117584 149.015320,227.930832 
	C149.022385,252.622849 149.029465,277.314850 148.445282,302.592163 
	C148.640594,307.726135 148.835907,312.860138 149.011581,318.931976 
	C149.018463,424.623596 149.025330,530.315247 148.467285,636.540344 
	C148.654709,639.024719 148.842133,641.509094 149.009613,644.927917 
	C149.017853,649.954163 149.026093,654.980469 148.512863,660.424927 
	C148.687149,661.614197 148.861435,662.803467 149.013367,664.930664 
	C149.037277,688.606323 149.061188,712.282043 149.049286,736.729675 
	C150.367523,737.484070 151.685760,738.238525 153.940582,739.018127 
	C184.626846,739.011597 215.313126,739.005066 246.754089,738.994873 
	C251.503357,737.347900 246.593658,734.138367 247.933029,731.005737 
	C247.941971,662.678894 247.950897,594.351990 247.996277,525.262573 
	C247.986343,524.502930 247.976395,523.743286 247.971222,522.171387 
z"/>
<path fill="#1A654B" opacity="1.000000" stroke="none" 
	d="
M716.999207,962.989197 
	C499.280396,962.989807 282.061432,962.989807 64.842453,962.989807 
	C64.842552,962.730774 64.842659,962.471802 64.842758,962.212769 
	C360.626526,962.212769 656.410278,962.212769 952.194092,962.212769 
	C952.194397,962.471375 952.194763,962.729980 952.195129,962.988586 
	C873.963074,962.988586 795.731079,962.988586 716.999207,962.989197 
z"/>
<path fill="#05261B" opacity="1.000000" stroke="none" 
	d="
M973.199951,957.076599 
	C977.187805,954.616455 981.554932,952.551758 985.704834,950.116821 
	C997.408875,943.249390 1006.550598,934.048035 1011.490906,921.118103 
	C1012.363403,918.834473 1013.502686,916.652710 1014.813354,914.208008 
	C1017.731201,915.120789 1017.432251,916.035095 1016.557434,919.030212 
	C1012.732605,932.125000 1004.364685,941.499268 993.779175,949.109863 
	C988.540100,952.876526 982.500305,955.553284 976.704956,958.490723 
	C976.009399,958.843262 974.573059,957.734558 973.199951,957.076599 
z"/>
<path fill="#05261B" opacity="1.000000" stroke="none" 
	d="
M959.226379,959.318359 
	C960.740234,958.708191 962.481628,958.354614 964.632202,958.023254 
	C964.875000,959.272522 964.708435,960.499512 964.470032,962.255981 
	C962.465942,961.184814 960.959900,960.379883 959.226379,959.318359 
z"/>
<path fill="#05261B" opacity="1.000000" stroke="none" 
	d="
M56.023472,959.349854 
	C57.198288,958.868103 58.404713,958.710815 59.810799,958.835571 
	C58.910831,960.858032 57.989658,963.866394 56.023472,959.349854 
z"/>
<path fill="#05261B" opacity="1.000000" stroke="none" 
	d="
M1015.544922,912.194458 
	C1015.341064,911.566895 1015.445312,910.956604 1015.814941,910.164124 
	C1017.186218,910.703186 1018.292175,911.424438 1019.398132,912.145691 
	C1019.094299,912.625183 1018.790466,913.104614 1018.486633,913.584045 
	C1017.608765,913.126648 1016.730896,912.669189 1015.544922,912.194458 
z"/>
<path fill="#05261B" opacity="1.000000" stroke="none" 
	d="
M968.248901,958.149414 
	C968.445496,957.623474 968.918518,957.317566 969.686646,956.999878 
	C970.872559,957.593140 971.763489,958.198364 972.654419,958.803528 
	C972.474182,959.188354 972.293945,959.573181 972.113708,959.958008 
	C970.917542,959.428467 969.721436,958.898926 968.248901,958.149414 
z"/>
<path fill="#01573B" opacity="1.000000" stroke="none" 
	d="
M963.755798,5.865863 
	C962.279907,6.329620 960.555298,6.960086 958.830627,6.960333 
	C659.895935,7.003226 360.961273,7.001665 62.026608,6.984577 
	C60.548122,6.984492 59.069649,6.740483 57.303276,6.312833 
	C57.015377,6.015278 57.036804,5.561791 57.030468,5.336224 
	C140.651367,5.072798 224.278610,5.007340 307.905853,5.002487 
	C520.973267,4.990121 734.040710,5.004918 947.108154,5.006617 
	C948.440613,5.006627 949.773132,4.975138 951.574219,4.888525 
	C952.469116,4.850440 952.895508,4.882187 953.640198,4.870194 
	C956.338745,4.909549 958.718933,4.992646 961.542725,5.057458 
	C962.493225,5.272208 963.000183,5.505242 963.755798,5.865863 
z"/>
<path fill="#02251B" opacity="1.000000" stroke="none" 
	d="
M57.302319,3.947084 
	C57.437260,3.344943 57.895332,2.712106 58.676086,2.046498 
	C58.540993,2.647947 58.083221,3.282168 57.302319,3.947084 
z"/>
<path fill="#041F15" opacity="1.000000" stroke="none" 
	d="
M1010.997559,39.000504 
	C1000.672729,21.482727 985.788696,10.228722 965.357422,5.985327 
	C965.991394,3.338292 967.373535,2.448903 970.360901,3.569534 
	C983.596741,8.534756 996.219788,14.453722 1005.236145,25.855923 
	C1008.236450,29.650158 1010.422302,34.088394 1012.657349,38.616989 
	C1011.888611,39.001343 1011.443054,39.000923 1010.997559,39.000504 
z"/>
<path fill="#041F15" opacity="1.000000" stroke="none" 
	d="
M961.871704,3.714002 
	C961.041870,3.573656 960.076416,3.139425 959.055725,2.363502 
	C959.912354,2.487913 960.824280,2.954015 961.871704,3.714002 
z"/>
<path fill="#05261B" opacity="1.000000" stroke="none" 
	d="
M1011.035828,39.312782 
	C1011.443054,39.000923 1011.888611,39.001343 1012.668274,39.000145 
	C1013.323792,39.096508 1013.581848,39.282322 1013.636353,39.909904 
	C1013.282654,40.555702 1013.069397,40.847565 1012.856079,41.139412 
	C1012.262085,40.634624 1011.668091,40.129845 1011.035828,39.312782 
z"/>
<path fill="#041F15" opacity="1.000000" stroke="none" 
	d="
M1012.884888,41.451767 
	C1013.069397,40.847565 1013.282654,40.555702 1013.732422,40.132042 
	C1013.975037,40.169365 1013.981201,40.338493 1013.992432,40.761604 
	C1013.821777,41.572445 1013.645996,42.129299 1013.221191,42.853832 
	C1012.952637,42.602371 1012.933167,42.183239 1012.884888,41.451767 
z"/>
<path fill="#FFFFFF" opacity="1.000000" stroke="none" 
	d="
M702.034790,709.189758 
	C701.291626,709.103149 700.548523,709.016541 699.424988,708.949707 
	C699.044617,708.969482 699.076233,708.942566 698.980225,708.705200 
	C698.567322,708.639832 698.250488,708.811829 697.566467,708.826050 
	C694.806763,700.056274 692.491150,691.421997 690.001526,682.838196 
	C687.089417,672.797424 683.964661,662.818359 681.047913,652.778931 
	C678.917053,645.444214 677.091492,638.019897 674.909302,630.701294 
	C673.118774,624.696472 670.932983,618.810608 669.047791,612.832458 
	C665.820251,602.597229 662.631836,592.348511 659.570374,582.062805 
	C658.970947,580.048706 659.818787,577.070496 658.639832,575.851868 
	C652.649048,569.659485 654.053894,561.732483 652.613892,554.461975 
	C652.301941,554.743958 651.815247,555.183960 650.994141,555.926270 
	C650.511597,552.270325 650.064880,548.885437 649.613525,545.465820 
	C649.284912,545.767822 648.808716,546.205383 648.247131,546.721436 
	C644.608704,532.936829 640.983521,519.202515 637.363953,505.489502 
	C637.176941,505.734070 636.836243,506.179504 636.466492,506.662903 
	C635.307495,502.896973 633.830933,499.220642 633.070374,495.401703 
	C631.316895,486.596436 629.394897,477.921661 626.144653,469.459381 
	C622.531982,460.053619 619.935547,450.250916 617.042969,440.577301 
	C614.684875,432.691101 613.080017,424.533081 610.129761,416.885742 
	C607.880554,411.055634 606.988281,404.887390 603.570557,399.187317 
	C600.329346,393.781555 600.288086,386.457184 598.920410,379.631592 
	C598.676453,378.506927 598.351746,377.727234 598.013550,376.973389 
	C598.000000,376.999268 598.051941,376.972565 597.861206,376.599548 
	C596.543152,376.226501 595.415771,376.226501 594.029663,376.226501 
	C594.029663,377.998077 594.029785,379.652374 594.029602,381.306702 
	C594.025330,429.592163 594.030396,477.877625 594.014343,526.163086 
	C593.991089,596.092712 593.952515,666.022339 593.953735,735.973816 
	C593.986938,735.995667 593.956726,735.922119 593.495911,735.938965 
	C589.018372,736.023315 585.001648,736.090820 580.590210,736.099976 
	C579.134521,736.080750 578.073608,736.119812 576.580444,736.069336 
	C574.094543,736.039795 572.040833,736.099731 569.574951,736.100708 
	C567.778564,736.080994 566.394287,736.120300 564.597656,736.069885 
	C562.786560,736.040222 561.387939,736.100281 559.556519,736.101074 
	C557.087036,736.080811 555.050293,736.119812 552.590088,736.069092 
	C550.440857,736.038940 548.715088,736.098450 546.533020,736.098022 
	C542.388733,736.078491 538.700684,736.118835 534.552490,736.068909 
	C529.057190,736.039001 524.022034,736.099304 518.551758,736.101196 
	C515.780029,736.015381 513.443420,735.988037 511.063171,735.496277 
	C511.019531,563.466309 511.019531,391.900665 511.019531,220.019669 
	C513.290649,220.019669 515.093140,220.019653 516.895691,220.019684 
	C551.720459,220.020248 586.545288,220.021362 621.370056,220.020935 
	C629.661987,220.020828 630.991516,221.328476 630.965454,229.699860 
	C630.961609,230.937973 630.405884,232.182068 630.461487,233.407227 
	C630.475464,233.714966 631.867737,233.960144 632.522705,234.196548 
	C633.995361,240.983353 635.584351,248.306137 637.246643,255.966827 
	C637.800171,255.256393 638.141052,254.818817 638.477173,254.382355 
	C639.638855,257.768585 641.163696,261.077545 641.902466,264.553619 
	C643.867493,273.799591 643.998596,283.499878 648.982483,291.967285 
	C649.057983,292.095612 648.990173,292.300110 649.028320,292.459717 
	C650.197876,297.351288 651.398560,302.235626 652.530884,307.135773 
	C652.893982,308.707275 652.878967,310.385834 653.378845,311.902771 
	C655.867981,319.457092 658.592285,326.935486 660.995178,334.516235 
	C662.874634,340.445404 663.933533,346.674042 666.234192,352.418335 
	C668.208923,357.348755 667.577148,362.989929 671.731750,367.498108 
	C674.066895,370.031982 674.098389,374.765747 674.971802,378.553619 
	C676.788574,386.432220 678.108826,394.444763 680.311829,402.209717 
	C682.810791,411.017944 686.167480,419.579193 688.921265,428.320312 
	C690.262451,432.577606 690.843994,437.074036 692.182312,441.332428 
	C695.470947,451.796417 698.998901,462.185181 702.694519,473.405273 
	C703.474915,471.777710 704.498535,470.242615 704.966675,468.553558 
	C706.330811,463.631866 707.231445,458.572021 708.773804,453.712311 
	C710.157104,449.353943 712.673035,445.313477 713.721802,440.902710 
	C714.694275,436.812988 715.359253,432.711395 716.485291,428.608154 
	C718.526733,421.169159 719.718079,413.595673 722.777710,406.293762 
	C725.220764,400.463165 725.251221,393.669495 727.137756,387.545166 
	C729.252930,380.678619 732.571838,374.186584 734.760803,367.337830 
	C736.419006,362.149567 736.914734,356.601471 738.310364,351.314545 
	C740.074829,344.630219 742.358887,338.084137 744.172119,331.411346 
	C745.681946,325.854858 746.566772,320.121307 748.211426,314.610291 
	C750.551270,306.769318 753.656006,299.149414 755.833069,291.269043 
	C757.891296,283.818665 758.992065,276.108398 760.871765,268.602051 
	C761.849731,264.696411 763.866516,261.057831 764.942078,257.168121 
	C766.732544,250.692398 768.210022,244.126816 769.693420,237.570587 
	C770.934204,232.086853 771.995056,226.562408 773.135498,221.055984 
	C773.135559,221.055984 773.037109,221.010666 773.418945,220.860687 
	C774.879822,220.472183 775.958862,220.025681 777.037964,220.025269 
	C812.677612,220.011475 848.317322,220.040421 884.003540,220.279022 
	C884.050049,220.495010 884.194214,220.912735 884.110352,221.382843 
	C884.068481,248.243301 884.110535,274.633667 884.076294,301.346558 
	C884.051514,302.104980 884.102966,302.540833 884.087524,303.442566 
	C884.013184,324.359131 883.982300,344.809906 884.004211,365.260590 
	C884.035522,394.520142 884.105286,423.779663 884.082886,453.357208 
	C884.056702,454.105469 884.106323,454.535706 884.086304,455.432159 
	C884.065186,476.944000 884.113708,497.989594 884.084961,519.463501 
	C884.056763,521.917847 884.105896,523.943909 884.085938,526.436035 
	C884.064636,539.279541 884.112305,551.657043 884.084045,564.480286 
	C884.055359,567.941772 884.102722,570.957458 884.077271,574.438477 
	C884.004517,591.074524 884.004517,607.245178 884.004517,623.415894 
	C884.368713,623.414856 884.732849,623.413757 885.097046,623.412720 
	C885.097046,606.977844 885.097046,590.543030 885.309448,574.071045 
	C885.521851,574.033936 885.944519,574.115723 885.970703,574.576477 
	C885.997864,608.687805 886.011780,642.338379 885.961426,675.988892 
	C885.958923,677.662720 885.398193,679.335815 885.054443,680.539551 
	C885.011536,672.941223 885.011536,665.812500 885.011536,658.683777 
	C884.726440,658.688354 884.441284,658.692871 884.156189,658.697388 
	C884.156189,670.477173 884.156189,682.256897 884.083069,694.498291 
	C884.009949,706.117615 884.009949,717.275330 884.009949,728.433044 
	C884.375977,728.433838 884.742004,728.434692 885.108032,728.435547 
	C885.108032,723.826538 885.108032,719.217590 885.108032,714.608582 
	C885.460876,714.613525 885.813660,714.618530 886.166504,714.623474 
	C886.166504,719.409546 886.166504,724.195618 886.089478,729.431030 
	C886.012512,731.798828 886.012512,733.717285 886.012512,736.175415 
	C880.073059,736.175415 874.538452,736.175415 868.540161,736.100891 
	C847.725586,736.082642 827.374756,736.138855 806.650879,736.118042 
	C805.522400,736.097351 804.766785,736.153687 803.776733,736.124023 
	C803.542297,736.037964 803.060913,735.904602 803.041626,735.910217 
	C803.022278,735.915833 803.049866,735.941711 803.026489,735.477295 
	C803.002075,721.944092 803.019958,708.875305 802.994019,695.806641 
	C802.972961,685.203125 802.899109,674.599731 802.929688,663.667664 
	C802.957336,662.893982 802.904053,662.448914 802.919678,661.544739 
	C802.941650,657.054382 802.894775,653.023193 802.929138,648.570129 
	C802.956909,646.433350 802.903381,644.718384 802.918579,642.539062 
	C802.992493,572.196228 803.004211,502.317841 802.995483,432.439453 
	C802.994141,421.628418 802.898804,410.817352 802.928101,399.633484 
	C802.954529,398.502960 802.899719,397.745300 802.912048,396.543182 
	C802.931885,393.409241 802.884583,390.719727 802.919250,387.570007 
	C803.001221,382.458771 803.001221,377.807739 803.001221,373.156708 
	C802.345703,373.126587 801.690186,373.096497 801.034668,373.066406 
	C797.803406,383.750610 794.723511,394.483643 791.296265,405.104675 
	C788.161804,414.818542 785.365173,424.607910 782.707153,434.464996 
	C779.810059,445.208832 774.750549,455.459381 772.696655,466.315277 
	C770.673340,477.008972 766.491089,486.732910 763.231323,496.894043 
	C759.874878,507.356384 758.299255,518.375732 755.438049,529.015259 
	C752.638245,539.426331 749.188293,549.662109 746.045288,559.981445 
	C743.025696,569.895508 740.028442,579.816467 737.030945,589.737305 
	C733.741333,600.624695 730.462769,611.515442 727.176697,622.413452 
	C727.010376,622.376343 726.206665,622.196838 725.720764,622.088318 
	C725.720764,624.233398 726.041504,626.016113 725.645996,627.622498 
	C725.044617,630.065247 723.737244,632.330994 723.101379,634.768860 
	C721.604370,640.508667 720.617249,646.393616 718.900940,652.061523 
	C715.261108,664.080933 710.635925,675.842163 707.699402,688.019104 
	C705.982788,695.137634 705.210632,702.462524 702.034790,709.189758 
z"/>
<path fill="#FFFFFF" opacity="1.000000" stroke="none" 
	d="
M367.026489,736.184082 
	C366.262939,736.126099 365.499420,736.068176 364.137695,736.028870 
	C363.539551,736.047424 363.075378,735.992004 363.015869,735.651611 
	C362.325897,734.846008 361.695404,734.380798 361.034302,733.502075 
	C360.134857,730.002869 359.492371,726.830139 358.346619,723.850891 
	C356.412415,718.821838 353.895752,714.006592 352.136749,708.924011 
	C351.035370,705.741577 351.291901,702.091248 350.203522,698.901917 
	C347.716064,691.612732 344.749512,684.487915 342.031647,677.276001 
	C340.524628,673.276978 339.065521,669.257690 337.692474,665.210999 
	C335.093933,657.552612 332.513275,649.887024 330.044312,642.186279 
	C328.768707,638.207642 327.963440,634.071167 326.573456,630.137512 
	C322.144012,617.601990 317.362457,605.188416 313.084900,592.602722 
	C311.189240,587.025085 310.544220,581.022888 308.655334,575.442322 
	C306.913818,570.297058 303.912872,565.582520 302.111389,560.451904 
	C300.000336,554.439453 298.692902,548.149963 296.842377,542.039551 
	C294.566772,534.525391 292.106781,527.066589 289.637543,519.613342 
	C289.543671,519.330078 288.521545,519.354309 287.567932,519.008057 
	C273.500244,518.780945 259.796570,518.780945 245.970291,518.780945 
	C246.029007,520.036255 246.098083,521.513428 246.091537,523.364868 
	C246.067657,524.497620 246.119431,525.256042 246.093628,526.476562 
	C246.011246,592.132019 246.004089,657.325500 246.008774,722.518982 
	C246.009003,725.674622 246.113495,728.830322 246.092285,732.365662 
	C245.686417,733.881958 245.357697,735.018555 244.613495,736.069702 
	C242.791428,736.042908 241.384827,736.101501 239.514313,736.100647 
	C211.040558,736.082275 183.030716,736.123291 154.590790,736.062866 
	C153.766418,734.199280 153.027496,732.437195 153.026901,730.674927 
	C152.969696,562.918823 152.968658,395.162659 152.964066,227.406525 
	C152.964020,225.651749 152.964066,223.896957 152.964066,221.979095 
	C175.787109,221.979095 197.930328,221.996826 220.073517,221.974777 
	C250.053497,221.944931 280.033447,221.884552 310.475983,221.902237 
	C321.047577,222.218964 331.259827,221.332321 340.886536,225.823425 
	C343.609375,227.093704 346.915222,227.046417 349.818939,228.009689 
	C357.946472,230.705872 366.147552,233.267166 374.045105,236.543442 
	C380.998169,239.427917 387.594147,243.173172 394.932465,245.137283 
	C394.932465,245.137283 394.972168,245.040466 395.056030,245.365570 
	C396.404510,246.506104 397.669159,247.321533 398.933777,248.136963 
	C398.933777,248.136963 398.971161,248.040573 399.056732,248.365997 
	C406.736664,256.503693 414.330994,264.315979 421.925354,272.128265 
	C421.925354,272.128265 421.951324,272.023071 421.959839,272.406067 
	C423.649078,276.028473 425.434753,279.218384 426.988953,282.517395 
	C430.385132,289.726135 434.253693,296.789276 436.811127,304.292969 
	C439.018524,310.769562 439.756805,317.759155 440.989319,324.550110 
	C441.542633,327.598694 440.839600,331.212067 442.245636,333.699097 
	C445.189758,338.906799 444.109161,343.868042 443.047974,349.031006 
	C442.588104,351.268341 441.801788,353.481750 441.692169,355.731812 
	C441.625854,357.093048 443.018829,358.512207 442.992401,359.890717 
	C442.808441,369.481842 442.450470,379.070099 442.096802,388.657410 
	C441.783905,397.138214 442.287140,405.609009 439.117676,413.890167 
	C436.164825,421.605591 435.398560,430.292389 431.716125,437.561981 
	C426.441376,447.975006 419.880310,457.853699 412.887421,467.228760 
	C409.491333,471.781769 403.362762,474.195160 399.362213,478.420715 
	C392.001984,486.194855 383.565430,491.901886 373.352417,495.021759 
	C370.840271,495.789154 370.696777,496.977783 371.778625,499.429779 
	C374.464539,505.517456 376.921295,511.739197 378.946564,518.074463 
	C380.413940,522.664551 380.514282,527.715088 382.154053,532.221985 
	C385.779541,542.186768 390.491516,551.772949 393.813477,561.826416 
	C396.726746,570.642883 402.900848,578.225830 403.492188,587.868896 
	C403.499756,587.992310 403.774475,588.081787 403.824921,588.222717 
	C405.566010,593.087952 407.316742,597.950012 409.018188,602.829102 
	C410.113770,605.970825 410.937958,609.221741 412.229828,612.277405 
	C414.907715,618.611511 417.913147,624.807678 420.562592,631.152893 
	C421.233643,632.759949 420.643555,634.913696 421.368439,636.474670 
	C424.410095,643.024414 428.507477,649.182983 430.791595,655.965271 
	C435.926331,671.211914 440.286987,686.687500 446.839142,701.470215 
	C450.177277,709.001648 451.952759,717.215454 454.638123,725.051025 
	C455.801910,728.446838 457.479523,731.666504 458.679321,735.028748 
	C458.275665,735.374329 458.116364,735.657349 457.492676,735.981384 
	C427.027710,736.076294 397.027100,736.130188 367.026489,736.184082 
M248.124908,301.022278 
	C247.418640,302.458313 246.099167,303.892700 246.095322,305.330627 
	C245.983109,347.247345 245.999619,389.164459 246.012421,431.081482 
	C246.012802,432.342499 246.194366,433.603485 246.289062,434.833252 
	C261.756256,434.833252 276.875153,434.833252 292.917938,434.999146 
	C298.692596,434.963074 304.834656,436.180542 310.162170,434.618988 
	C319.979553,431.741394 329.301788,427.206696 335.735077,417.870789 
	C336.163300,417.323975 336.591492,416.777161 337.655823,415.896912 
	C339.680237,413.496277 342.171631,411.346069 343.623657,408.638458 
	C346.020477,404.169128 347.759827,399.345642 349.750305,394.660370 
	C351.474854,390.601105 353.970642,386.661682 354.679535,382.427216 
	C355.755371,376.000641 356.265106,369.310913 355.759857,362.830902 
	C355.137756,354.852081 353.629517,346.874695 351.714722,339.090881 
	C350.639008,334.718048 348.749664,330.067352 345.865387,326.712250 
	C338.834686,318.533691 331.129730,311.046112 320.623505,306.970398 
	C313.567719,304.233276 306.756104,301.064941 298.065247,301.015259 
	C281.710815,301.067902 265.356415,301.120544 248.124908,301.022278 
z"/>
<path fill="#041F15" opacity="1.000000" stroke="none" 
	d="
M772.764038,221.081299 
	C771.995056,226.562408 770.934204,232.086853 769.693420,237.570587 
	C768.210022,244.126816 766.732544,250.692398 764.942078,257.168121 
	C763.866516,261.057831 761.849731,264.696411 760.871765,268.602051 
	C758.992065,276.108398 757.891296,283.818665 755.833069,291.269043 
	C753.656006,299.149414 750.551270,306.769318 748.211426,314.610291 
	C746.566772,320.121307 745.681946,325.854858 744.172119,331.411346 
	C742.358887,338.084137 740.074829,344.630219 738.310364,351.314545 
	C736.914734,356.601471 736.419006,362.149567 734.760803,367.337830 
	C732.571838,374.186584 729.252930,380.678619 727.137756,387.545166 
	C725.251221,393.669495 725.220764,400.463165 722.777710,406.293762 
	C719.718079,413.595673 718.526733,421.169159 716.485291,428.608154 
	C715.359253,432.711395 714.694275,436.812988 713.721802,440.902710 
	C712.673035,445.313477 710.157104,449.353943 708.773804,453.712311 
	C707.231445,458.572021 706.330811,463.631866 704.966675,468.553558 
	C704.498535,470.242615 703.474915,471.777710 702.694519,473.405273 
	C698.998901,462.185181 695.470947,451.796417 692.182312,441.332428 
	C690.843994,437.074036 690.262451,432.577606 688.921265,428.320312 
	C686.167480,419.579193 682.810791,411.017944 680.311829,402.209717 
	C678.108826,394.444763 676.788574,386.432220 674.971802,378.553619 
	C674.098389,374.765747 674.066895,370.031982 671.731750,367.498108 
	C667.577148,362.989929 668.208923,357.348755 666.234192,352.418335 
	C663.933533,346.674042 662.874634,340.445404 660.995178,334.516235 
	C658.592285,326.935486 655.867981,319.457092 653.378845,311.902771 
	C652.878967,310.385834 652.893982,308.707275 652.530884,307.135773 
	C651.398560,302.235626 650.197876,297.351288 649.028320,292.459717 
	C648.990173,292.300110 649.057983,292.095612 648.982483,291.967285 
	C643.998596,283.499878 643.867493,273.799591 641.902466,264.553619 
	C641.163696,261.077545 639.638855,257.768585 638.477173,254.382355 
	C638.141052,254.818817 637.800171,255.256393 637.246643,255.966827 
	C635.584351,248.306137 633.995361,240.983353 632.522705,234.196548 
	C631.867737,233.960144 630.475464,233.714966 630.461487,233.407227 
	C630.405884,232.182068 630.961609,230.937973 630.965454,229.699860 
	C630.991516,221.328476 629.661987,220.020828 621.370056,220.020935 
	C586.545288,220.021362 551.720459,220.020248 516.895691,220.019684 
	C515.093140,220.019653 513.290649,220.019669 511.019531,220.019669 
	C511.019531,391.900665 511.019531,563.466309 510.698364,735.508850 
	C509.889832,736.004639 509.402435,736.023438 508.915070,736.042297 
	C508.614594,734.294434 508.051422,732.546570 508.050995,730.798645 
	C508.011536,562.312683 508.014099,393.826691 508.018188,225.340729 
	C508.018341,218.672592 508.625610,218.019379 515.024170,218.016022 
	C551.687744,217.996735 588.351624,218.056534 625.014587,217.907135 
	C629.112061,217.890442 631.101562,219.502762 632.160706,223.171875 
	C636.026978,236.564713 639.973145,249.934464 643.878418,263.316040 
	C647.678223,276.335724 651.475342,289.356201 655.254578,302.381866 
	C661.161133,322.739471 667.037842,343.105774 672.952515,363.461029 
	C680.621033,389.851715 688.309143,416.236725 696.000427,442.620728 
	C698.069458,449.718536 700.181091,456.803955 702.493103,464.640381 
	C704.771790,457.411560 707.004272,450.821899 708.922241,444.141968 
	C712.842896,430.487305 716.615906,416.790100 720.409424,403.099213 
	C723.898376,390.507599 727.280090,377.886108 730.806396,365.305084 
	C736.572510,344.732697 742.467590,324.196350 748.213806,303.618408 
	C752.846680,287.027649 757.287964,270.383392 761.914795,253.790924 
	C764.703674,243.789566 767.658142,233.833893 770.620300,223.882126 
	C770.921387,222.870728 771.788269,222.027756 772.764038,221.081299 
z"/>
<path fill="#042018" opacity="1.000000" stroke="none" 
	d="
M367.012482,736.477722 
	C397.027100,736.130188 427.027710,736.076294 457.648285,736.214600 
	C458.684082,736.416931 459.099945,736.427063 459.515747,736.437134 
	C459.318420,735.946838 459.121063,735.456482 458.923706,734.966187 
	C457.479523,731.666504 455.801910,728.446838 454.638123,725.051025 
	C451.952759,717.215454 450.177277,709.001648 446.839142,701.470215 
	C440.286987,686.687500 435.926331,671.211914 430.791595,655.965271 
	C428.507477,649.182983 424.410095,643.024414 421.368439,636.474670 
	C420.643555,634.913696 421.233643,632.759949 420.562592,631.152893 
	C417.913147,624.807678 414.907715,618.611511 412.229828,612.277405 
	C410.937958,609.221741 410.113770,605.970825 409.018188,602.829102 
	C407.316742,597.950012 405.566010,593.087952 403.824921,588.222717 
	C403.774475,588.081787 403.499756,587.992310 403.492188,587.868896 
	C402.900848,578.225830 396.726746,570.642883 393.813477,561.826416 
	C390.491516,551.772949 385.779541,542.186768 382.154053,532.221985 
	C380.514282,527.715088 380.413940,522.664551 378.946564,518.074463 
	C376.921295,511.739197 374.464539,505.517456 371.778625,499.429779 
	C370.696777,496.977783 370.840271,495.789154 373.352417,495.021759 
	C383.565430,491.901886 392.001984,486.194855 399.362213,478.420715 
	C403.362762,474.195160 409.491333,471.781769 412.887421,467.228760 
	C419.880310,457.853699 426.441376,447.975006 431.716125,437.561981 
	C435.398560,430.292389 436.164825,421.605591 439.117676,413.890167 
	C442.287140,405.609009 441.783905,397.138214 442.096802,388.657410 
	C442.450470,379.070099 442.808441,369.481842 442.992401,359.890717 
	C443.018829,358.512207 441.625854,357.093048 441.692169,355.731812 
	C441.801788,353.481750 442.588104,351.268341 443.047974,349.031006 
	C444.109161,343.868042 445.189758,338.906799 442.245636,333.699097 
	C440.839600,331.212067 441.542633,327.598694 440.989319,324.550110 
	C439.756805,317.759155 439.018524,310.769562 436.811127,304.292969 
	C434.253693,296.789276 430.385132,289.726135 426.988953,282.517395 
	C425.434753,279.218384 423.649078,276.028473 421.906525,272.415619 
	C425.270355,276.796631 429.384491,281.204254 431.988647,286.372711 
	C438.954102,300.197052 442.687592,315.082672 445.032288,330.364838 
	C448.075531,350.199982 447.695435,370.077454 445.992737,389.953339 
	C444.635406,405.798126 441.108124,421.189941 435.152893,435.997742 
	C424.945648,461.377991 407.122040,479.850494 383.577545,493.177155 
	C380.574127,494.877136 377.531525,496.507965 374.281769,498.294769 
	C403.939240,578.142700 433.592682,657.979797 463.680878,738.987366 
	C459.952820,738.987366 457.398895,738.987366 454.103760,738.684326 
	C451.548584,738.254150 449.734772,738.019104 447.920654,738.016296 
	C420.921783,737.974426 393.922882,737.963318 366.923981,737.945007 
	C366.948792,737.553772 366.973633,737.162598 367.012482,736.477722 
z"/>
<path fill="#020403" opacity="1.000000" stroke="none" 
	d="
M886.166504,728.981689 
	C886.166504,724.195618 886.166504,719.409546 886.166504,714.623474 
	C885.813660,714.618530 885.460876,714.613525 885.108032,714.608582 
	C885.108032,719.217590 885.108032,723.826538 885.108032,728.435547 
	C884.742004,728.434692 884.375977,728.433838 884.009949,728.433044 
	C884.009949,717.275330 884.009949,706.117615 884.389160,694.210205 
	C884.878113,689.310120 884.987732,685.159668 885.097351,681.009216 
	C885.398193,679.335815 885.958923,677.662720 885.961426,675.988892 
	C886.011780,642.338379 885.997864,608.687805 885.985291,574.122925 
	C885.648743,570.138855 885.323792,567.069153 885.029663,563.531616 
	C885.038574,550.710327 885.016663,538.356812 885.273804,525.745544 
	C885.369202,523.325195 885.185486,521.162598 885.033447,518.532166 
	C885.049316,497.041229 885.033569,476.018158 885.242188,454.849609 
	C885.307495,454.134460 885.148376,453.564758 885.021851,452.527588 
	C885.022400,402.378052 884.990417,352.695923 885.191040,302.868469 
	C885.268555,302.144104 885.113586,301.565063 885.002258,300.519958 
	C885.099121,276.728729 885.152283,253.403610 885.537842,230.061752 
	C886.530579,230.064331 887.191040,230.083664 887.851501,230.102982 
	C887.872681,320.748169 887.901489,411.393372 887.912720,502.038544 
	C887.922058,577.354309 887.910706,652.670105 887.609497,728.470825 
	C886.929199,728.964417 886.547852,728.973022 886.166504,728.981689 
z"/>
<path fill="#05241B" opacity="1.000000" stroke="none" 
	d="
M701.988281,709.523560 
	C705.210632,702.462524 705.982788,695.137634 707.699402,688.019104 
	C710.635925,675.842163 715.261108,664.080933 718.900940,652.061523 
	C720.617249,646.393616 721.604370,640.508667 723.101379,634.768860 
	C723.737244,632.330994 725.044617,630.065247 725.645996,627.622498 
	C726.041504,626.016113 725.720764,624.233398 725.720764,622.088318 
	C726.206665,622.196838 727.010376,622.376343 727.176697,622.413452 
	C730.462769,611.515442 733.741333,600.624695 737.030945,589.737305 
	C740.028442,579.816467 743.025696,569.895508 746.045288,559.981445 
	C749.188293,549.662109 752.638245,539.426331 755.438049,529.015259 
	C758.299255,518.375732 759.874878,507.356384 763.231323,496.894043 
	C766.491089,486.732910 770.673340,477.008972 772.696655,466.315277 
	C774.750549,455.459381 779.810059,445.208832 782.707153,434.464996 
	C785.365173,424.607910 788.161804,414.818542 791.296265,405.104675 
	C794.723511,394.483643 797.803406,383.750610 801.034668,373.066406 
	C801.690186,373.096497 802.345703,373.126587 803.001221,373.156708 
	C803.001221,377.807739 803.001221,382.458771 802.696533,387.770691 
	C801.947815,389.283844 801.503784,390.136108 801.059753,390.988403 
	C800.066711,391.602112 798.420959,392.025482 798.178162,392.858002 
	C794.292175,406.181488 790.668579,419.581238 786.819214,432.915710 
	C779.847290,457.067108 772.833618,481.206970 765.710327,505.314148 
	C758.068298,531.176575 750.244568,556.985291 742.567932,582.837585 
	C737.575928,599.649048 732.685242,616.490662 727.785828,633.329407 
	C723.158264,649.234009 718.591492,665.156311 713.973145,681.063599 
	C711.206909,690.591492 708.461060,700.126404 705.548584,709.609863 
	C704.890686,711.751953 703.578186,713.693054 702.567078,715.726685 
	C701.959290,715.556824 701.351501,715.387024 700.743713,715.217163 
	C701.143127,713.430542 701.542480,711.643982 701.988281,709.523560 
z"/>
<path fill="#05241B" opacity="1.000000" stroke="none" 
	d="
M598.839600,379.976532 
	C600.288086,386.457184 600.329346,393.781555 603.570557,399.187317 
	C606.988281,404.887390 607.880554,411.055634 610.129761,416.885742 
	C613.080017,424.533081 614.684875,432.691101 617.042969,440.577301 
	C619.935547,450.250916 622.531982,460.053619 626.144653,469.459381 
	C629.394897,477.921661 631.316895,486.596436 633.070374,495.401703 
	C633.830933,499.220642 635.307495,502.896973 636.466492,506.662903 
	C636.836243,506.179504 637.176941,505.734070 637.363953,505.489502 
	C640.983521,519.202515 644.608704,532.936829 648.247131,546.721436 
	C648.808716,546.205383 649.284912,545.767822 649.613525,545.465820 
	C650.064880,548.885437 650.511597,552.270325 650.994141,555.926270 
	C651.815247,555.183960 652.301941,554.743958 652.613892,554.461975 
	C654.053894,561.732483 652.649048,569.659485 658.639832,575.851868 
	C659.818787,577.070496 658.970947,580.048706 659.570374,582.062805 
	C662.631836,592.348511 665.820251,602.597229 669.047791,612.832458 
	C670.932983,618.810608 673.118774,624.696472 674.909302,630.701294 
	C677.091492,638.019897 678.917053,645.444214 681.047913,652.778931 
	C683.964661,662.818359 687.089417,672.797424 690.001526,682.838196 
	C692.491150,691.421997 694.806763,700.056274 697.853210,708.841064 
	C698.696838,708.990112 698.886536,708.966309 699.076233,708.942566 
	C699.076233,708.942566 699.044617,708.969482 699.049683,708.948975 
	C698.869263,710.149414 698.683838,711.370239 698.498352,712.591125 
	C698.113220,712.726196 697.728088,712.861267 697.342957,712.996338 
	C696.275391,711.300537 694.794189,709.736206 694.206787,707.887817 
	C690.150696,695.124817 686.178650,682.332886 682.379150,669.491211 
	C678.197205,655.356873 674.320374,641.132385 670.140869,626.997314 
	C666.390930,614.315002 662.356995,601.716858 658.543945,589.052795 
	C651.977844,567.245056 645.531189,545.401306 638.944946,523.599670 
	C635.403870,511.878204 631.566589,500.245758 628.070496,488.511353 
	C625.521057,479.954468 623.475220,471.247162 620.907471,462.696198 
	C617.721619,452.086853 614.141663,441.596436 610.890991,431.005829 
	C606.865173,417.889862 603.003723,404.723450 599.066528,391.580231 
	C598.856201,390.877991 598.602417,390.188751 597.570862,389.596588 
	C597.570862,394.200897 597.570862,398.805237 596.998535,403.710663 
	C596.036560,404.034912 595.646973,404.058044 595.176880,403.609802 
	C595.075806,395.711151 595.086182,388.283569 595.015320,380.856781 
	C594.994385,378.666565 595.172668,376.811768 598.051941,376.972565 
	C598.051941,376.972565 598.000000,376.999268 597.994568,377.304596 
	C598.272583,378.398804 598.556091,379.187683 598.839600,379.976532 
z"/>
<path fill="#020C09" opacity="1.000000" stroke="none" 
	d="
M149.085114,735.957764 
	C149.061188,712.282043 149.037277,688.606323 149.277023,664.248474 
	C149.371902,662.379761 149.203110,661.193237 149.034332,660.006714 
	C149.026093,654.980469 149.017853,649.954163 149.295197,644.189819 
	C149.397934,640.970032 149.215073,638.488464 149.032211,636.006836 
	C149.025330,530.315247 149.018463,424.623596 149.308350,318.164673 
	C149.415588,312.267212 149.226059,307.137024 149.036530,302.006866 
	C149.029465,277.314850 149.022385,252.622849 149.266876,227.276611 
	C149.361069,225.751083 149.203720,224.879776 149.046356,224.008484 
	C149.041718,223.567963 149.037079,223.127441 149.367935,222.350876 
	C150.138489,222.008606 150.573532,222.002380 151.022812,222.465027 
	C151.035004,288.877441 151.038101,354.820984 151.029770,420.764526 
	C151.016495,525.840576 150.995590,630.916687 150.661865,735.990906 
	C149.925598,735.978638 149.505341,735.968201 149.085114,735.957764 
z"/>
<path fill="#042018" opacity="1.000000" stroke="none" 
	d="
M287.931976,519.235229 
	C288.521545,519.354309 289.543671,519.330078 289.637543,519.613342 
	C292.106781,527.066589 294.566772,534.525391 296.842377,542.039551 
	C298.692902,548.149963 300.000336,554.439453 302.111389,560.451904 
	C303.912872,565.582520 306.913818,570.297058 308.655334,575.442322 
	C310.544220,581.022888 311.189240,587.025085 313.084900,592.602722 
	C317.362457,605.188416 322.144012,617.601990 326.573456,630.137512 
	C327.963440,634.071167 328.768707,638.207642 330.044312,642.186279 
	C332.513275,649.887024 335.093933,657.552612 337.692474,665.210999 
	C339.065521,669.257690 340.524628,673.276978 342.031647,677.276001 
	C344.749512,684.487915 347.716064,691.612732 350.203522,698.901917 
	C351.291901,702.091248 351.035370,705.741577 352.136749,708.924011 
	C353.895752,714.006592 356.412415,718.821838 358.346619,723.850891 
	C359.492371,726.830139 360.134857,730.002869 361.044922,733.843079 
	C361.749268,735.062378 362.412323,735.527161 363.075378,735.992004 
	C363.075378,735.992004 363.539551,736.047424 363.762665,736.116577 
	C365.690308,739.374084 363.365875,739.617065 361.706055,738.562561 
	C360.067169,737.521118 358.732513,735.424500 358.072906,733.511963 
	C353.930389,721.500610 350.137207,709.368713 345.989410,697.359253 
	C341.360107,683.955627 336.380707,670.672913 331.737915,657.273804 
	C328.707794,648.528870 326.085907,639.643250 323.137878,630.868835 
	C318.692322,617.637512 314.083008,604.461243 309.616180,591.236938 
	C305.966858,580.432983 302.513916,569.562134 298.809937,558.777222 
	C294.792725,547.080200 290.575012,535.452209 286.482269,523.780884 
	C286.158875,522.858643 286.129089,521.833374 286.222778,520.430542 
	C286.965820,519.748535 287.448914,519.491882 287.931976,519.235229 
z"/>
<path fill="#020C09" opacity="1.000000" stroke="none" 
	d="
M802.846924,400.006287 
	C802.898804,410.817352 802.994141,421.628418 802.995483,432.439453 
	C803.004211,502.317841 802.992493,572.196228 802.580383,642.539673 
	C801.502380,642.973877 800.831421,642.943115 800.160461,642.912354 
	C800.130066,574.660034 800.064636,506.407715 800.106873,438.155457 
	C800.113220,427.867554 800.664978,417.580811 800.857422,407.291534 
	C800.890930,405.500854 800.388794,403.700165 800.442932,401.446930 
	C801.450195,400.661957 802.148499,400.334137 802.846924,400.006287 
z"/>
<path fill="#020C09" opacity="1.000000" stroke="none" 
	d="
M595.257324,404.081146 
	C595.646973,404.058044 596.036560,404.034912 596.719055,404.006500 
	C597.022949,514.026184 597.033997,624.051147 596.811401,734.648499 
	C596.295959,735.413757 596.091858,735.668884 595.767700,735.986084 
	C595.569885,735.985840 595.174988,736.011047 595.130615,735.542725 
	C595.076538,661.190186 595.044250,587.306030 595.066956,513.421814 
	C595.078186,476.974915 595.190674,440.528046 595.257324,404.081146 
z"/>
<path fill="#020403" opacity="1.000000" stroke="none" 
	d="
M246.169449,731.985962 
	C246.113495,728.830322 246.009003,725.674622 246.008774,722.518982 
	C246.004089,657.325500 246.011246,592.132019 246.392456,526.471924 
	C247.165848,526.011963 247.562851,526.018555 247.959839,526.025146 
	C247.950897,594.351990 247.941971,662.678894 247.628326,731.485474 
	C246.938904,731.972168 246.554169,731.979065 246.169449,731.985962 
z"/>
<path fill="#020905" opacity="1.000000" stroke="none" 
	d="
M150.094162,218.173691 
	C194.730865,218.135956 239.367569,218.095459 284.004272,218.063507 
	C290.666595,218.058731 297.328918,218.094299 304.477173,218.434753 
	C304.969513,219.158920 304.975922,219.559555 304.515686,219.977463 
	C253.060928,220.017700 202.072769,220.040680 150.842896,219.907211 
	C150.432190,219.225067 150.263168,218.699387 150.094162,218.173691 
z"/>
<path fill="#042018" opacity="1.000000" stroke="none" 
	d="
M304.982300,219.960205 
	C304.975922,219.559555 304.969513,219.158920 304.939575,218.461243 
	C315.236481,219.169708 325.664276,219.554291 335.853882,221.316269 
	C354.308380,224.507416 372.179108,229.835205 388.525330,239.334320 
	C390.861664,240.691986 392.816193,242.706680 394.939941,244.777298 
	C387.594147,243.173172 380.998169,239.427917 374.045105,236.543442 
	C366.147552,233.267166 357.946472,230.705872 349.818939,228.009689 
	C346.915222,227.046417 343.609375,227.093704 340.886536,225.823425 
	C331.259827,221.332321 321.047577,222.218964 310.382385,221.550690 
	C308.211578,220.742874 306.596954,220.351547 304.982300,219.960205 
z"/>
<path fill="#020905" opacity="1.000000" stroke="none" 
	d="
M883.956970,220.063049 
	C848.317322,220.040421 812.677612,220.011475 777.037964,220.025269 
	C775.958862,220.025681 774.879822,220.472183 773.423767,220.914673 
	C772.690613,217.079483 775.721680,218.099655 777.801819,218.095200 
	C803.899292,218.039261 829.996887,218.048721 856.094482,218.042938 
	C865.070740,218.040955 874.046936,218.043060 883.499146,218.384979 
	C883.969055,219.172104 883.963013,219.617569 883.956970,220.063049 
z"/>
<path fill="#020C09" opacity="1.000000" stroke="none" 
	d="
M802.848694,663.996338 
	C802.899109,674.599731 802.972961,685.203125 802.994019,695.806641 
	C803.019958,708.875305 803.002075,721.944092 802.660583,735.491455 
	C801.589050,735.954956 800.860046,735.939758 800.131104,735.924622 
	C800.124329,712.287170 800.117554,688.649780 800.468811,664.525085 
	C801.500793,664.023987 802.174744,664.010132 802.848694,663.996338 
z"/>
<path fill="#020C09" opacity="1.000000" stroke="none" 
	d="
M245.999390,738.998535 
	C215.313126,739.005066 184.626846,739.011597 153.475342,738.693481 
	C153.020782,737.952576 153.031448,737.536438 153.370377,737.080933 
	C154.139755,737.043945 154.580856,737.046265 155.318939,737.336060 
	C183.814728,737.685486 212.013550,737.747314 240.593567,737.827942 
	C242.251358,737.841248 243.527969,737.835815 245.054657,737.969055 
	C245.536270,738.404663 245.767838,738.701599 245.999390,738.998535 
z"/>
<path fill="#020C09" opacity="1.000000" stroke="none" 
	d="
M366.827637,738.247192 
	C393.922882,737.963318 420.921783,737.974426 447.920654,738.016296 
	C449.734772,738.019104 451.548584,738.254150 453.655090,738.668274 
	C425.652588,738.981506 397.357513,739.011597 369.062439,739.013489 
	C368.285400,739.013550 367.508331,738.710815 366.827637,738.247192 
z"/>
<path fill="#020C09" opacity="1.000000" stroke="none" 
	d="
M593.986206,738.976624 
	C567.642395,738.993896 541.298523,739.016174 514.954712,739.011169 
	C513.815491,739.010925 512.676331,738.759277 511.709106,738.314880 
	C514.326477,737.937195 516.771973,737.869446 519.661865,737.820557 
	C524.996887,737.834473 529.887390,737.829407 535.261230,737.884644 
	C539.566223,737.900330 543.388000,737.855713 547.604370,737.829102 
	C549.594604,737.833069 551.190186,737.819153 553.244751,737.881714 
	C555.871094,737.910889 558.038513,737.863708 560.583374,737.832642 
	C562.238525,737.845825 563.516296,737.842712 565.243896,737.895752 
	C567.198425,737.914062 568.703003,737.876221 570.618652,737.839417 
	C572.947327,737.836487 574.864868,737.832520 577.224365,737.887573 
	C578.850342,737.906921 580.034424,737.867371 581.660095,737.832336 
	C586.070251,737.579102 590.038757,737.321289 593.997742,737.382446 
	C593.987488,738.126404 593.986816,738.551514 593.986206,738.976624 
z"/>
<path fill="#020C09" opacity="1.000000" stroke="none" 
	d="
M880.028442,738.003479 
	C878.142639,738.347961 876.257690,738.985962 874.370850,738.991943 
	C852.890686,739.060059 831.410339,739.031677 809.459717,738.763855 
	C808.991150,738.327881 808.992859,738.157104 809.463745,737.988037 
	C829.619080,737.982849 849.305115,737.975952 869.449951,737.978271 
	C873.281982,737.992798 876.655212,737.998108 880.028442,738.003479 
z"/>
<path fill="#042018" opacity="1.000000" stroke="none" 
	d="
M421.961304,271.754944 
	C414.330994,264.315979 406.736664,256.503693 399.007538,248.381866 
	C399.973694,248.307297 401.465546,248.164139 402.115173,248.835663 
	C408.688690,255.630875 415.137421,262.547302 421.566620,269.480286 
	C421.949005,269.892609 421.864532,270.737793 421.961304,271.754944 
z"/>
<path fill="#020C09" opacity="1.000000" stroke="none" 
	d="
M287.567932,519.008057 
	C287.448914,519.491882 286.965820,519.748535 286.197632,520.040222 
	C274.973358,519.732727 264.034698,519.369141 253.094437,519.064697 
	C250.787048,519.000427 248.181030,518.672913 247.670715,522.582886 
	C246.969193,522.993164 246.568176,522.991882 246.167175,522.990601 
	C246.098083,521.513428 246.029007,520.036255 245.970291,518.780945 
	C259.796570,518.780945 273.500244,518.780945 287.567932,519.008057 
z"/>
<path fill="#05241B" opacity="1.000000" stroke="none" 
	d="
M880.435730,738.014771 
	C876.655212,737.998108 873.281982,737.992798 869.453247,737.679749 
	C868.999756,736.973206 869.001770,736.574280 869.003784,736.175415 
	C874.538452,736.175415 880.073059,736.175415 886.012512,736.175415 
	C886.012512,733.717285 886.012512,731.798828 886.089478,729.431030 
	C886.547852,728.973022 886.929199,728.964417 887.593689,728.933533 
	C887.919617,730.074707 887.992859,731.237915 888.000244,732.401611 
	C888.047424,739.790527 888.008362,739.817444 880.435730,738.014771 
z"/>
<path fill="#020C09" opacity="1.000000" stroke="none" 
	d="
M802.847839,648.991943 
	C802.894775,653.023193 802.941650,657.054382 802.582520,661.545532 
	C801.507996,661.973206 800.839478,661.940918 800.171021,661.908691 
	C800.153687,657.940369 800.136292,653.972107 800.476440,649.521851 
	C801.505249,649.023865 802.176514,649.007935 802.847839,648.991943 
z"/>
<path fill="#05241B" opacity="1.000000" stroke="none" 
	d="
M884.003540,220.279022 
	C883.963013,219.617569 883.969055,219.172104 883.964844,218.393509 
	C886.861145,217.611893 888.266357,218.660095 888.024780,221.789795 
	C887.836121,224.234589 887.967041,226.704056 887.903687,229.632767 
	C887.191040,230.083664 886.530579,230.064331 885.465698,229.622284 
	C884.772217,226.437286 884.483215,223.675003 884.194214,220.912735 
	C884.194214,220.912735 884.050049,220.495010 884.003540,220.279022 
z"/>
<path fill="#042018" opacity="1.000000" stroke="none" 
	d="
M148.740906,302.299500 
	C149.226059,307.137024 149.415588,312.267212 149.318161,317.695740 
	C148.835907,312.860138 148.640594,307.726135 148.740906,302.299500 
z"/>
<path fill="#05241B" opacity="1.000000" stroke="none" 
	d="
M808.994507,737.986389 
	C808.992859,738.157104 808.991150,738.327881 808.990601,738.754883 
	C806.027039,738.292297 802.198120,740.905762 800.132629,736.319275 
	C800.860046,735.939758 801.589050,735.954956 802.683960,735.955933 
	C803.049866,735.941711 803.022278,735.915833 803.033936,736.158203 
	C803.143188,736.694641 803.240723,736.988586 803.338318,737.282532 
	C803.562683,736.925049 803.786987,736.567566 804.011230,736.210022 
	C804.766785,736.153687 805.522400,736.097351 806.823608,736.328369 
	C807.911011,737.072632 808.452759,737.529480 808.994507,737.986389 
z"/>
<path fill="#042018" opacity="1.000000" stroke="none" 
	d="
M519.217407,737.801636 
	C516.771973,737.869446 514.326477,737.937195 511.421936,738.004517 
	C510.324005,737.558411 509.685211,737.112793 508.980774,736.354736 
	C509.402435,736.023438 509.889832,736.004639 510.742004,735.973206 
	C513.443420,735.988037 515.780029,736.015381 518.576965,736.377747 
	C519.097351,737.075684 519.157349,737.438721 519.217407,737.801636 
z"/>
<path fill="#042018" opacity="1.000000" stroke="none" 
	d="
M246.376740,738.996704 
	C245.767838,738.701599 245.536270,738.404663 245.105865,737.693665 
	C244.947662,736.904785 244.988312,736.529968 245.028961,736.155151 
	C245.357697,735.018555 245.686417,733.881958 246.092285,732.365662 
	C246.554169,731.979065 246.938904,731.972168 247.610016,731.949524 
	C246.593658,734.138367 251.503357,737.347900 246.376740,738.996704 
z"/>
<path fill="#05241B" opacity="1.000000" stroke="none" 
	d="
M802.929138,648.570129 
	C802.176514,649.007935 801.505249,649.023865 800.503418,649.066284 
	C800.133362,647.326477 800.093811,645.560242 800.107422,643.353149 
	C800.831421,642.943115 801.502380,642.973877 802.511597,643.004028 
	C802.903381,644.718384 802.956909,646.433350 802.929138,648.570129 
z"/>
<path fill="#05241B" opacity="1.000000" stroke="none" 
	d="
M802.928101,399.633484 
	C802.148499,400.334137 801.450195,400.661957 800.471558,401.041473 
	C800.366211,398.961792 800.541138,396.830414 801.123413,394.526733 
	C801.968811,395.232178 802.406860,396.109894 802.844971,396.987610 
	C802.899719,397.745300 802.954529,398.502960 802.928101,399.633484 
z"/>
<path fill="#042018" opacity="1.000000" stroke="none" 
	d="
M148.749756,636.273560 
	C149.215073,638.488464 149.397934,640.970032 149.305176,643.722534 
	C148.842133,641.509094 148.654709,639.024719 148.749756,636.273560 
z"/>
<path fill="#020C09" opacity="1.000000" stroke="none" 
	d="
M802.912109,396.543152 
	C802.406860,396.109894 801.968811,395.232178 801.294678,394.168762 
	C801.049866,393.234619 801.041077,392.486115 801.046021,391.363037 
	C801.503784,390.136108 801.947815,389.283844 802.614624,388.230896 
	C802.884583,390.719727 802.931885,393.409241 802.912109,396.543152 
z"/>
<path fill="#042018" opacity="1.000000" stroke="none" 
	d="
M153.042114,737.120239 
	C153.031448,737.536438 153.020782,737.952576 153.007065,738.680908 
	C151.685760,738.238525 150.367523,737.484070 149.067200,736.343750 
	C149.505341,735.968201 149.925598,735.978638 150.841278,736.239441 
	C151.905182,736.699951 152.473648,736.910095 153.042114,737.120239 
z"/>
<path fill="#042018" opacity="1.000000" stroke="none" 
	d="
M594.328491,738.950684 
	C593.986816,738.551514 593.987488,738.126404 593.983398,737.096802 
	C593.971313,736.302185 593.963989,736.112122 593.956726,735.922119 
	C593.956726,735.922119 593.986938,735.995667 594.266663,736.004272 
	C594.755859,736.012329 594.965393,736.011719 595.174988,736.011047 
	C595.174988,736.011047 595.569885,735.985840 596.033813,735.989929 
	C596.674927,735.994385 596.852051,735.994751 597.029175,735.995117 
	C596.243103,736.971680 595.456970,737.948242 594.328491,738.950684 
z"/>
<path fill="#042018" opacity="1.000000" stroke="none" 
	d="
M398.936646,247.763245 
	C397.669159,247.321533 396.404510,246.506104 395.006409,245.382202 
	C396.228485,245.845657 397.583984,246.617584 398.936646,247.763245 
z"/>
<path fill="#042018" opacity="1.000000" stroke="none" 
	d="
M148.773590,660.215820 
	C149.203110,661.193237 149.371902,662.379761 149.288208,663.779541 
	C148.861435,662.803467 148.687149,661.614197 148.773590,660.215820 
z"/>
<path fill="#042018" opacity="1.000000" stroke="none" 
	d="
M149.768280,218.161652 
	C150.263168,218.699387 150.432190,219.225067 150.821976,220.228333 
	C151.031372,221.136002 151.019989,221.566071 151.008591,221.996155 
	C150.573532,222.002380 150.138489,222.008606 149.378174,222.020599 
	C149.182755,220.734100 149.312561,219.441849 149.768280,218.161652 
z"/>
<path fill="#05241B" opacity="1.000000" stroke="none" 
	d="
M800.119629,662.270508 
	C800.839478,661.940918 801.507996,661.973206 802.513672,662.004639 
	C802.904053,662.448914 802.957336,662.893982 802.929688,663.667725 
	C802.174744,664.010132 801.500793,664.023987 800.494690,664.062866 
	C800.131165,663.602722 800.099731,663.117493 800.119629,662.270508 
z"/>
<path fill="#042018" opacity="1.000000" stroke="none" 
	d="
M246.091537,523.364868 
	C246.568176,522.991882 246.969193,522.993164 247.668335,522.989014 
	C247.976395,523.743286 247.986343,524.502930 247.978058,525.643860 
	C247.562851,526.018555 247.165848,526.011963 246.470032,526.009949 
	C246.119431,525.256042 246.067657,524.497620 246.091537,523.364868 
z"/>
<path fill="#042018" opacity="1.000000" stroke="none" 
	d="
M148.794495,224.187775 
	C149.203720,224.879776 149.361069,225.751083 149.277588,226.807617 
	C148.872025,226.117584 148.707321,225.242325 148.794495,224.187775 
z"/>
<path fill="#05241B" opacity="1.000000" stroke="none" 
	d="
M597.033813,735.750122 
	C596.852051,735.994751 596.674927,735.994385 596.231689,735.990112 
	C596.091858,735.668884 596.295959,735.413757 596.803833,735.118042 
	C597.029724,735.015259 597.038513,735.505188 597.033813,735.750122 
z"/>
<path fill="#0F563E" opacity="1.000000" stroke="none" 
	d="
M595.130615,735.542725 
	C594.965393,736.011719 594.755859,736.012329 594.233398,735.982422 
	C593.952515,666.022339 593.991089,596.092712 594.014343,526.163086 
	C594.030396,477.877625 594.025330,429.592163 594.029602,381.306702 
	C594.029785,379.652374 594.029663,377.998077 594.029663,376.226501 
	C595.415771,376.226501 596.543152,376.226501 597.861206,376.599548 
	C595.172668,376.811768 594.994385,378.666565 595.015320,380.856781 
	C595.086182,388.283569 595.075806,395.711151 595.176941,403.609802 
	C595.190674,440.528046 595.078186,476.974915 595.066956,513.421814 
	C595.044250,587.306030 595.076538,661.190186 595.130615,735.542725 
z"/>
<path fill="#1A654B" opacity="1.000000" stroke="none" 
	d="
M884.958435,303.013824 
	C884.990417,352.695923 885.022400,402.378052 884.813965,452.532501 
	C884.573425,453.004852 884.158691,453.039185 884.158691,453.039185 
	C884.105286,423.779663 884.035522,394.520142 884.004211,365.260590 
	C883.982300,344.809906 884.013184,324.359131 884.288208,303.458405 
	C884.555908,303.008392 884.958435,303.013824 884.958435,303.013824 
z"/>
<path fill="#052A1F" opacity="1.000000" stroke="none" 
	d="
M809.463745,737.988037 
	C808.452759,737.529480 807.911011,737.072632 807.196533,736.405396 
	C827.374756,736.138855 847.725586,736.082642 868.540161,736.100891 
	C869.001770,736.574280 868.999756,736.973206 868.994385,737.670532 
	C849.305115,737.975952 829.619080,737.982849 809.463745,737.988037 
z"/>
<path fill="#1A654B" opacity="1.000000" stroke="none" 
	d="
M884.110352,221.382843 
	C884.483215,223.675003 884.772217,226.437286 885.133362,229.639023 
	C885.152283,253.403610 885.099121,276.728729 884.800537,300.522064 
	C884.555115,300.990295 884.152527,301.024017 884.152527,301.024017 
	C884.110535,274.633667 884.068481,248.243301 884.110352,221.382843 
z"/>
<path fill="#1A654B" opacity="1.000000" stroke="none" 
	d="
M885.017761,454.995056 
	C885.033569,476.018158 885.049316,497.041229 884.823303,518.535400 
	C884.581543,519.006409 884.162170,519.035217 884.162170,519.035217 
	C884.113708,497.989594 884.065186,476.944000 884.301514,455.448364 
	C884.586243,454.998383 885.017761,454.995056 885.017761,454.995056 
z"/>
<path fill="#1C6F53" opacity="1.000000" stroke="none" 
	d="
M885.097046,574.108154 
	C885.097046,590.543030 885.097046,606.977844 885.097046,623.412720 
	C884.732849,623.413757 884.368713,623.414856 884.004517,623.415894 
	C884.004517,607.245178 884.004517,591.074524 884.316895,574.451843 
	C884.629333,573.999878 885.097046,574.108154 885.097046,574.108154 
z"/>
<path fill="#1A654B" opacity="1.000000" stroke="none" 
	d="
M884.994751,526.003296 
	C885.016663,538.356812 885.038574,550.710327 884.819702,563.533875 
	C884.578918,564.003906 884.160034,564.034485 884.160034,564.034485 
	C884.112305,551.657043 884.064636,539.279541 884.295532,526.452698 
	C884.574158,526.003296 884.994690,526.003296 884.994751,526.003296 
z"/>
<path fill="#1A654B" opacity="1.000000" stroke="none" 
	d="
M885.054443,680.539551 
	C884.987732,685.159668 884.878113,689.310120 884.462280,693.748596 
	C884.156189,682.256897 884.156189,670.477173 884.156189,658.697388 
	C884.441284,658.692871 884.726440,658.688354 885.011536,658.683777 
	C885.011536,665.812500 885.011536,672.941223 885.054443,680.539551 
z"/>
<path fill="#0F563E" opacity="1.000000" stroke="none" 
	d="
M519.661865,737.820618 
	C519.157349,737.438721 519.097351,737.075684 519.012085,736.436157 
	C524.022034,736.099304 529.057190,736.039001 534.526611,736.348999 
	C534.899841,737.087646 534.838867,737.455994 534.777954,737.824341 
	C529.887390,737.829407 524.996887,737.834473 519.661865,737.820618 
z"/>
<path fill="#0F563E" opacity="1.000000" stroke="none" 
	d="
M593.495911,735.938965 
	C593.963989,736.112122 593.971313,736.302185 593.992920,736.777893 
	C590.038757,737.321289 586.070251,737.579102 581.604614,737.558105 
	C581.066711,736.905701 581.025818,736.531982 580.984924,736.158325 
	C585.001648,736.090820 589.018372,736.023315 593.495911,735.938965 
z"/>
<path fill="#042018" opacity="1.000000" stroke="none" 
	d="
M535.261230,737.884644 
	C534.838867,737.455994 534.899841,737.087646 534.986694,736.439209 
	C538.700684,736.118835 542.388733,736.078491 546.557983,736.376160 
	C547.096008,737.079834 547.152832,737.445496 547.209717,737.811157 
	C543.388000,737.855713 539.566223,737.900330 535.261230,737.884644 
z"/>
<path fill="#041F15" opacity="1.000000" stroke="none" 
	d="
M884.084045,564.480286 
	C884.160034,564.034485 884.578918,564.003906 884.788879,564.001709 
	C885.323792,567.069153 885.648743,570.138855 885.959106,573.662109 
	C885.944519,574.115723 885.521851,574.033936 885.309448,574.071045 
	C885.097046,574.108154 884.629333,573.999878 884.389709,573.986511 
	C884.102722,570.957458 884.055359,567.941772 884.084045,564.480286 
z"/>
<path fill="#041F15" opacity="1.000000" stroke="none" 
	d="
M885.273804,525.745544 
	C884.994690,526.003296 884.574158,526.003296 884.364563,525.986694 
	C884.105896,523.943909 884.056763,521.917847 884.084961,519.463501 
	C884.162170,519.035217 884.581543,519.006409 884.791626,519.003174 
	C885.185486,521.162598 885.369202,523.325195 885.273804,525.745544 
z"/>
<path fill="#042018" opacity="1.000000" stroke="none" 
	d="
M560.205933,737.816467 
	C558.038513,737.863708 555.871094,737.910889 553.299683,737.611938 
	C552.934998,736.896729 552.974304,736.527710 553.013550,736.158752 
	C555.050293,736.119812 557.087036,736.080811 559.580322,736.379639 
	C560.093201,737.083862 560.149597,737.450134 560.205933,737.816467 
z"/>
<path fill="#0F563E" opacity="1.000000" stroke="none" 
	d="
M576.782471,737.828552 
	C574.864868,737.832520 572.947327,737.836487 570.565918,737.563354 
	C570.063843,736.910767 570.025452,736.535217 569.987061,736.159729 
	C572.040833,736.099731 574.094543,736.039795 576.554749,736.350098 
	C576.901672,737.089722 576.842041,737.459167 576.782471,737.828552 
z"/>
<path fill="#0F563E" opacity="1.000000" stroke="none" 
	d="
M552.590149,736.069092 
	C552.974304,736.527710 552.934998,736.896729 552.840759,737.535461 
	C551.190186,737.819153 549.594604,737.833069 547.604370,737.829102 
	C547.152832,737.445496 547.096008,737.079834 547.014160,736.436035 
	C548.715088,736.098450 550.440857,736.038940 552.590149,736.069092 
z"/>
<path fill="#0F563E" opacity="1.000000" stroke="none" 
	d="
M560.583374,737.832642 
	C560.149597,737.450134 560.093201,737.083862 560.013062,736.438965 
	C561.387939,736.100281 562.786560,736.040222 564.573425,736.352051 
	C564.905701,737.095886 564.849854,737.467773 564.794006,737.839661 
	C563.516296,737.842712 562.238525,737.845825 560.583374,737.832642 
z"/>
<path fill="#042018" opacity="1.000000" stroke="none" 
	d="
M565.243896,737.895752 
	C564.849854,737.467773 564.905701,737.095886 564.985840,736.441772 
	C566.394287,736.120300 567.778564,736.080994 569.574951,736.100708 
	C570.025452,736.535217 570.063843,736.910767 570.154907,737.562317 
	C568.703003,737.876221 567.198425,737.914062 565.243896,737.895752 
z"/>
<path fill="#042018" opacity="1.000000" stroke="none" 
	d="
M577.224365,737.887573 
	C576.842041,737.459167 576.901672,737.089722 576.986938,736.439575 
	C578.073608,736.119812 579.134521,736.080750 580.590210,736.099976 
	C581.025818,736.531982 581.066711,736.905701 581.163086,737.553589 
	C580.034424,737.867371 578.850342,737.906921 577.224365,737.887573 
z"/>
<path fill="#05241B" opacity="1.000000" stroke="none" 
	d="
M884.076294,301.346558 
	C884.152527,301.024017 884.555115,300.990295 884.756836,300.988159 
	C885.113586,301.565063 885.268555,302.144104 885.191040,302.868469 
	C884.958435,303.013824 884.555908,303.008392 884.355225,302.992554 
	C884.102966,302.540833 884.051514,302.104980 884.076294,301.346558 
z"/>
<path fill="#041F15" opacity="1.000000" stroke="none" 
	d="
M885.242188,454.849609 
	C885.017761,454.995056 884.586243,454.998383 884.371094,454.982178 
	C884.106323,454.535706 884.056702,454.105469 884.082886,453.357208 
	C884.158691,453.039185 884.573425,453.004852 884.781372,452.999939 
	C885.148376,453.564758 885.307495,454.134460 885.242188,454.849609 
z"/>
<path fill="#0F563E" opacity="1.000000" stroke="none" 
	d="
M598.920410,379.631592 
	C598.556091,379.187683 598.272583,378.398804 598.008057,377.278748 
	C598.351746,377.727234 598.676453,378.506927 598.920410,379.631592 
z"/>
<path fill="#052A1F" opacity="1.000000" stroke="none" 
	d="
M803.776794,736.124023 
	C803.786987,736.567566 803.562683,736.925049 803.338318,737.282532 
	C803.240723,736.988586 803.143188,736.694641 803.053223,736.152588 
	C803.060913,735.904602 803.542297,736.037964 803.776794,736.124023 
z"/>
<path fill="#014A33" opacity="1.000000" stroke="none" 
	d="
M698.980225,708.705200 
	C698.886536,708.966309 698.696838,708.990112 698.220337,708.998901 
	C698.250488,708.811829 698.567322,708.639832 698.980225,708.705200 
z"/>
<path fill="#014B33" opacity="1.000000" stroke="none" 
	d="
M337.019714,416.230347 
	C336.591492,416.777161 336.163300,417.323975 335.095947,417.919556 
	C333.537018,418.277985 332.375854,418.331024 331.733368,418.935455 
	C320.526520,429.478607 306.428375,431.819794 291.478638,433.086365 
	C278.541748,433.067108 266.063538,432.838806 253.600525,433.174683 
	C248.829590,433.303253 247.823730,431.661530 247.841278,427.218781 
	C248.002228,386.476990 247.948532,345.734314 248.430450,304.984070 
	C252.390930,304.965607 255.884430,305.080811 259.364166,304.911926 
	C263.578827,304.707397 267.781830,304.262695 272.405365,303.889008 
	C281.175446,303.630280 289.530060,303.404449 298.018555,303.546814 
	C299.525269,304.270752 300.880493,304.831146 302.273651,304.951263 
	C321.769348,306.632111 339.513062,316.616058 347.223450,337.145416 
	C351.507294,348.551422 352.574371,360.350739 351.924774,372.334503 
	C351.263428,384.535217 348.596649,396.230804 341.912262,406.758911 
	C340.015106,409.746979 338.636292,413.064148 337.019714,416.230347 
z"/>
<path fill="#0F563E" opacity="1.000000" stroke="none" 
	d="
M151.022812,222.465027 
	C151.019989,221.566071 151.031372,221.136002 151.063675,220.384796 
	C202.072769,220.040680 253.060928,220.017700 304.515717,219.977463 
	C306.596954,220.351547 308.211578,220.742874 309.919800,221.485748 
	C280.033447,221.884552 250.053497,221.944931 220.073517,221.974777 
	C197.930328,221.996826 175.787109,221.979095 152.964066,221.979095 
	C152.964066,223.896957 152.964020,225.651749 152.964066,227.406525 
	C152.968658,395.162659 152.969696,562.918823 153.026901,730.674927 
	C153.027496,732.437195 153.766418,734.199280 154.583710,736.283936 
	C155.006760,736.606445 155.021973,737.048523 155.021973,737.048523 
	C154.580856,737.046265 154.139755,737.043945 153.370377,737.080933 
	C152.473648,736.910095 151.905182,736.699951 151.157318,736.241272 
	C150.995590,630.916687 151.016495,525.840576 151.029770,420.764526 
	C151.038101,354.820984 151.035004,288.877441 151.022812,222.465027 
z"/>
<path fill="#042018" opacity="1.000000" stroke="none" 
	d="
M337.337769,416.063660 
	C338.636292,413.064148 340.015106,409.746979 341.912262,406.758911 
	C348.596649,396.230804 351.263428,384.535217 351.924774,372.334503 
	C352.574371,360.350739 351.507294,348.551422 347.223450,337.145416 
	C339.513062,316.616058 321.769348,306.632111 302.273651,304.951263 
	C300.880493,304.831146 299.525269,304.270752 298.265686,303.363770 
	C298.583374,302.261536 298.787781,301.710541 298.992218,301.159576 
	C306.756104,301.064941 313.567719,304.233276 320.623505,306.970398 
	C331.129730,311.046112 338.834686,318.533691 345.865387,326.712250 
	C348.749664,330.067352 350.639008,334.718048 351.714722,339.090881 
	C353.629517,346.874695 355.137756,354.852081 355.759857,362.830902 
	C356.265106,369.310913 355.755371,376.000641 354.679535,382.427216 
	C353.970642,386.661682 351.474854,390.601105 349.750305,394.660370 
	C347.759827,399.345642 346.020477,404.169128 343.623657,408.638458 
	C342.171631,411.346069 339.680237,413.496277 337.337769,416.063660 
z"/>
<path fill="#020905" opacity="1.000000" stroke="none" 
	d="
M247.957382,304.991913 
	C247.948532,345.734314 248.002228,386.476990 247.841278,427.218781 
	C247.823730,431.661530 248.829590,433.303253 253.600525,433.174683 
	C266.063538,432.838806 278.541748,433.067108 291.493286,433.373474 
	C291.979767,434.062073 291.986908,434.447662 291.994049,434.833252 
	C276.875153,434.833252 261.756256,434.833252 246.289062,434.833252 
	C246.194366,433.603485 246.012802,432.342499 246.012421,431.081482 
	C245.999619,389.164459 245.983109,347.247345 246.095322,305.330627 
	C246.099167,303.892700 247.418640,302.458313 248.563293,301.399963 
	C249.001801,302.180634 249.001907,302.583649 248.769836,303.088562 
	C248.344223,303.790955 248.150803,304.391449 247.957382,304.991913 
z"/>
<path fill="#042018" opacity="1.000000" stroke="none" 
	d="
M155.318939,737.336060 
	C155.021973,737.048523 155.006760,736.606445 155.013824,736.385376 
	C183.030716,736.123291 211.040558,736.082275 239.541153,736.378235 
	C240.092072,737.079895 240.152237,737.444580 240.212387,737.809204 
	C212.013550,737.747314 183.814728,737.685486 155.318939,737.336060 
z"/>
<path fill="#042018" opacity="1.000000" stroke="none" 
	d="
M292.455994,434.916199 
	C291.986908,434.447662 291.979767,434.062073 291.958008,433.389404 
	C306.428375,431.819794 320.526520,429.478607 331.733368,418.935455 
	C332.375854,418.331024 333.537018,418.277985 334.839813,417.994446 
	C329.301788,427.206696 319.979553,431.741394 310.162170,434.618988 
	C304.834656,436.180542 298.692596,434.963074 292.455994,434.916199 
z"/>
<path fill="#020403" opacity="1.000000" stroke="none" 
	d="
M249.002029,302.986633 
	C249.001907,302.583649 249.001801,302.180634 249.001831,301.475403 
	C265.356415,301.120544 281.710815,301.067902 298.528748,301.087402 
	C298.787781,301.710541 298.583374,302.261536 298.131805,302.995544 
	C289.530060,303.404449 281.175446,303.630280 272.099731,303.612427 
	C263.919769,303.241333 256.460907,303.113983 249.002029,302.986633 
z"/>
<path fill="#0F563E" opacity="1.000000" stroke="none" 
	d="
M240.593567,737.827942 
	C240.152237,737.444580 240.092072,737.079895 240.005066,736.437683 
	C241.384827,736.101501 242.791428,736.042908 244.613495,736.069702 
	C244.988312,736.529968 244.947662,736.904785 244.855804,737.554993 
	C243.527969,737.835815 242.251358,737.841248 240.593567,737.827942 
z"/>
<path fill="#014A33" opacity="1.000000" stroke="none" 
	d="
M458.679321,735.028748 
	C459.121063,735.456482 459.318420,735.946838 459.515747,736.437134 
	C459.099945,736.427063 458.684082,736.416931 458.112671,736.173584 
	C458.116364,735.657349 458.275665,735.374329 458.679321,735.028748 
z"/>
<path fill="#014A33" opacity="1.000000" stroke="none" 
	d="
M363.015869,735.651611 
	C362.412323,735.527161 361.749268,735.062378 361.075562,734.256592 
	C361.695404,734.380798 362.325897,734.846008 363.015869,735.651611 
z"/>
<path fill="#042018" opacity="1.000000" stroke="none" 
	d="
M248.769836,303.088562 
	C256.460907,303.113983 263.919769,303.241333 271.684265,303.645264 
	C267.781830,304.262695 263.578827,304.707397 259.364166,304.911926 
	C255.884430,305.080811 252.390930,304.965607 248.430450,304.984070 
	C248.150803,304.391449 248.344223,303.790955 248.769836,303.088562 
z"/>
</svg>